<svg id="Layer_1" data-name="Layer 1" xmlns="http://www.w3.org/2000/svg" viewBox="0 0 566.08 265.56"><path fill="black" d="M0,5.63H62.91c13.5,0,27,1.1,38.32,10.93,12.14,10.93,14.57,26.59,14.57,47,0,37.16-1.89,51.73-25.63,63.39,9.17,3.64,19.16,7.65,24.28,24,3,8.38,3.78,17.85,3.78,41.16,0,13.48-.27,32.79-7,48.09-9.72,22.22-26.45,22.59-40.48,22.59H0ZM43.48,51.17v55H62.37c11.34,0,12.69-9.1,12.69-28,0-20-2.7-26.95-14-26.95Zm0,100.54v64.84H61c14.85,0,14.85-13.84,14.85-31.33,0-24-.81-33.51-14.85-33.51Z" transform="translate(-0.04 -0.53)"></path><path fill="black" d="M148.69,5.27h64.76c12.14,0,29.41.73,40.2,16.76,8.37,13.11,9.18,31,9.18,49.17,0,38.25-9.45,46.63-24,57.2,22.67,7.28,24.56,20,24.56,51.36V234.4c0,17.12,2.43,22.22,6.48,28.42H227.48c-3.24-8.38-6.48-16-6.48-37.16,0-6.19.54-37.16.54-44.44,0-28.42-4-28.42-29.68-28.05V262.82H148.69Zm43.17,44.81v58.64c13.76,0,17.81,0,20-.72,9.17-2.55,10-12,10-31.7,0-22.22-2.43-26.22-16.19-26.22Z" transform="translate(-0.04 -0.53)"></path><path fill="black" d="M294.63,78.12c0-20.39,1.89-40.07,13.5-56.46C322.7,1.26,344,.53,357.78.53,418.49.53,418.49,55.9,418.49,84v98.36c0,20.4,0,45.17-14,64.11-13.49,18.58-34.27,19.67-48,19.67-60.72,0-61.8-51.72-61.8-81.59Zm46.15,121c0,11.65,0,21.85,15.92,21.85,12.41,0,15.92-6.92,15.92-21.85V67.56c0-16.76-4.32-21.13-16.73-21.13-11.34,0-15.11,5.47-15.11,20.77Z" transform="translate(-0.04 -0.53)"></path><path fill="black" d="M520.24,5.63h45.88L518.63,172.11v90.71h-44.8V172.11L428.23,5.63h45.6L497,119.29Z" transform="translate(-0.04 -0.53)"></path></svg>