<?xml version="1.0" encoding="UTF-8" standalone="no"?>
<svg
   width="127.01792"
   height="34"
   viewBox="0 0 127.01792 34"
   fill="none"
   version="1.1"
   id="svg20"
   sodipodi:docname="normcut-logo.svg"
   inkscape:version="1.2.2 (b0a84865, 2022-12-01)"
   xmlns:inkscape="http://www.inkscape.org/namespaces/inkscape"
   xmlns:sodipodi="http://sodipodi.sourceforge.net/DTD/sodipodi-0.dtd"
   xmlns="http://www.w3.org/2000/svg"
   xmlns:svg="http://www.w3.org/2000/svg">
  <defs
     id="defs24" />
  <sodipodi:namedview
     id="namedview22"
     pagecolor="#ffffff"
     bordercolor="#666666"
     borderopacity="1.0"
     inkscape:showpageshadow="2"
     inkscape:pageopacity="0.0"
     inkscape:pagecheckerboard="0"
     inkscape:deskcolor="#d1d1d1"
     showgrid="false"
     inkscape:zoom="5.1417627"
     inkscape:cx="29.853575"
     inkscape:cy="14.100223"
     inkscape:window-width="1920"
     inkscape:window-height="1147"
     inkscape:window-x="0"
     inkscape:window-y="25"
     inkscape:window-maximized="1"
     inkscape:current-layer="svg20" />
  <path
     d="m 77.402231,20.3233 c 0.0281,0.2833 0.0623,0.5084 0.1024,0.6791 0.1407,0.6109 0.4059,1.1614 0.7997,1.6537 0.2994,0.4019 0.7094,0.7455 1.2298,1.0328 0.5184,0.2874 1.1353,0.43 1.8446,0.43 1.6778,0 2.9496,-0.9062 3.8156,-2.7206 h 3.1848 c -0.3918,1.8586 -1.2297,3.2792 -2.5157,4.2598 -1.2839,0.9785 -2.7788,1.4688 -4.4847,1.4688 -1.5673,0 -2.8814,-0.3758 -3.9423,-1.1272 -0.7475,-0.5285 -1.3463,-1.0871 -1.7964,-1.6758 z m 5.8371,-13.24347 c 1.079,0.26323 2.0194,0.77362 2.8231,1.52912 1.2337,1.1634 2.0073,2.54985 2.3167,4.16335 h -3.1848 c -0.2471,-0.7656 -0.7052,-1.4347 -1.3743,-2.0094 -0.5265,-0.45 -1.1393,-0.7233 -1.8406,-0.82179 z"
     fill="#009900"
     id="path2" />
  <path
     d="M 90.141431,20.1349 V 6.95581 h 3.0215 V 19.7931 c 0,1.3762 0.3892,2.4265 1.1685,3.1513 0.7793,0.7245 1.7433,1.0869 2.8916,1.0869 1.1483,0 2.1123,-0.3624 2.891409,-1.0869 0.77899,-0.7248 1.16899,-1.7751 1.16899,-3.1513 V 6.95581 h 3.021 V 20.1349 c 0,2.0781 -0.688,3.7483 -2.064,5.0105 -1.376,1.2623 -3.048899,1.8934 -5.017399,1.8934 -1.9778,0 -3.6526,-0.6311 -5.0241,-1.8934 -1.3716,-1.2622 -2.0575,-2.9324 -2.0575,-5.0105 z"
     fill="#009900"
     id="path4" />
  <path
     d="M 111.52543,26.9367 V 9.6975 h -5.454 V 7.01782 h 13.931 V 9.6975 h -5.455 v 17.2392 z"
     fill="#009900"
     id="path6" />
  <path
     fill-rule="evenodd"
     clip-rule="evenodd"
     d="m 86.373531,0 -1.3262,3.00795 H 124.02043 V 30.9918 H 72.712131 l -1.3262,3.008 H 127.02843 V 0 Z"
     fill="#009900"
     id="path8" />
  <path
     d="M 7.0146909,26.9367 V 7.01782 h 2.85744 L 18.881331,21.1811 h 0.0544 V 7.01782 h 3.0351 V 26.9367 h -2.8573 l -9.0093,-14.1633 h -0.068 v 14.1633 z"
     fill="#005274"
     id="path10" />
  <path
     d="m 28.512231,17.0065 c 0,2.0505 0.0704,3.3812 0.212,3.9921 0.1411,0.6105 0.4079,1.1619 0.7999,1.6542 0.3006,0.401 0.7108,0.7451 1.2303,1.0321 0.5196,0.287 1.1347,0.4305 1.8456,0.4305 0.7108,0 1.326,-0.1435 1.8455,-0.4305 0.5196,-0.287 0.9294,-0.6311 1.2304,-1.0321 0.3916,-0.4923 0.6584,-1.0437 0.7999,-1.6542 0.1412,-0.6109 0.2116,-1.9416 0.2116,-3.9921 0,-2.0415 -0.0704,-3.3676 -0.2116,-3.9781 -0.1415,-0.6105 -0.4083,-1.1709 -0.7999,-1.6818 -0.301,-0.3827 -0.7108,-0.7194 -1.2304,-1.0115 -0.5195,-0.2916 -1.1347,-0.43745 -1.8455,-0.43745 -0.7109,0 -1.326,0.14585 -1.8456,0.43745 -0.5195,0.2921 -0.9297,0.6288 -1.2303,1.0115 -0.392,0.5109 -0.6588,1.0713 -0.7999,1.6818 -0.1416,0.6105 -0.212,1.9366 -0.212,3.9781 z m -3.0215,0 c 0,-2.397 0.0638,-3.9419 0.1917,-4.6345 0.1276,-0.6922 0.3555,-1.3307 0.6833,-1.914 0.4651,-0.86561 1.2284,-1.68145 2.29,-2.44713 1.0616,-0.76568 2.3764,-1.14832 3.9443,-1.14832 1.5586,0 2.8687,0.38264 3.9303,1.14832 1.0616,0.76568 1.8339,1.58152 2.3172,2.44713 0.3189,0.5833 0.5421,1.2218 0.67,1.914 0.1276,0.6926 0.1913,2.2375 0.1913,4.6345 0,2.397 -0.0637,3.9419 -0.1913,4.6345 -0.1279,0.6926 -0.3511,1.3307 -0.67,1.914 -0.4833,0.875 -1.2556,1.6885 -2.3172,2.4401 -1.0616,0.7521 -2.3717,1.1282 -3.9303,1.1282 -1.5679,0 -2.8827,-0.3761 -3.9443,-1.1282 -1.0616,-0.7516 -1.8249,-1.5651 -2.29,-2.4401 -0.3278,-0.5833 -0.5557,-1.2214 -0.6833,-1.914 -0.1279,-0.6926 -0.1917,-2.2375 -0.1917,-4.6345 z"
     fill="#005274"
     id="path12" />
  <path
     d="m 46.243131,9.6975 v 6.0426 h 4.566 c 1.1301,0 1.9778,-0.3146 2.5428,-0.9434 0.565,-0.6288 0.8478,-1.3669 0.8478,-2.2146 0,-1.0118 -0.3372,-1.7682 -1.0119,-2.2694 -0.565,-0.41027 -1.2984,-0.6152 -2.201,-0.6152 z m -3.0215,17.2392 V 7.01782 h 7.7928 c 1.7041,0 3.053,0.43748 4.0466,1.31243 0.5557,0.48375 1.0274,1.08921 1.4147,1.81835 0.3877,0.7295 0.5813,1.5403 0.5813,2.4335 0,1.2852 -0.3441,2.4219 -1.0324,3.4108 -0.6883,0.9892 -1.6336,1.6884 -2.8368,2.0987 l 4.6209,8.8451 h -3.5818 l -4.115,-8.5033 h -3.8688 v 8.5033 z"
     fill="#005274"
     id="path14" />
  <path
     d="m 74.299331,20.2573 v -5.7487 h -0.0543 l -4.1694,9.5845 h -2.5156 l -4.1694,-9.5845 h -0.0683 v 12.4277 h -3.022 V 7.01782 h 2.8572 l 5.7146,12.98628 5.5919,-12.98628 h 2.8573 v 6.38568 z"
     fill="#005274"
     id="path16" />
  <path
     fill-rule="evenodd"
     clip-rule="evenodd"
     d="M 83.241131,2.44141e-4 H -0.00312711 V 34 H 68.253631 l 1.3262,-3.0079 H 3.0048209 V 3.0082 H 81.915031 Z"
     fill="#005274"
     id="path18" />
</svg>
