<svg id="Gruppe_2" data-name="Gruppe 2" xmlns="http://www.w3.org/2000/svg" width="94.9656" height="29.2249" viewBox="0 0 949.656 292.249"><defs><clipPath id="clip-path"><rect id="Rechteck_2" data-name="Rechteck 2" width="949.656" height="292.249" fill="#3c6a88"></rect></clipPath></defs><g id="Gruppe_1" data-name="Gruppe 1" clip-path="url(#clip-path)"><path id="Pfad_1" data-name="Pfad 1" d="M.1,144.4Q.1,76.168.1,7.933C.1.891.859.128,7.856.12Q64.268.054,120.68,0c14.957-.017,29.15,3.029,42.041,10.882,14.987,9.131,24.989,22.415,31.023,38.68a133.7,133.7,0,0,1,7.321,64c-2.273,18.034-7.851,35.021-18.854,49.754-13.631,18.254-32.483,26.788-54.825,27.8-12.849.581-25.74.273-38.612.377-2.027.017-4.067-.027-6.079.184-6.031.634-9.078,3.787-9.587,9.834-.13,1.551-.1,3.118-.1,4.678q.008,37.1.032,74.2c0,.78.008,1.56,0,2.341-.065,5.578-2.048,7.552-7.708,7.556q-28.555.021-57.11,0C1.87,290.287,0,288.425,0,282.04Q-.007,213.221,0,144.4ZM122.755,95.678h-.016q0-38.161-.007-76.321a37.231,37.231,0,0,0-.152-3.974c-.549-5.168-3.5-8.3-8.689-8.8a111.511,111.511,0,0,0-11.682-.431c-6.939.065-13.887.146-20.811.559-4.41.262-6.913,2.578-7.645,6.919a63.306,63.306,0,0,0-.742,10.464q-.069,70.585-.025,141.171c0,3.276-.084,6.566.17,9.827.493,6.278,2.964,8.892,9.122,9.967a23.619,23.619,0,0,0,3.956.338c7.8.029,15.608.066,23.41-.026a30.02,30.02,0,0,0,6.242-.8c2.928-.667,5.185-2.429,5.852-5.431a39.107,39.107,0,0,0,.973-8.308c.072-25.049.042-50.1.042-75.15" transform="translate(0 0)" fill="#3c6a88"></path><path id="Pfad_2" data-name="Pfad 2" d="M705.35,208.119a28.917,28.917,0,0,0,.847-4.931q.049-38.626-.05-77.251c-.032-9.633-2.676-18.784-5.607-27.861q-7.362-22.813-14.665-45.644-6.959-21.838-13.8-43.713c-.258-.818-.45-1.656-.685-2.48-1.186-4.155.024-6,4.355-6.037C687.368.1,699,.126,710.621.12c9.754,0,19.509-.037,29.261.06,2.756.027,5.508.466,8.512.739-2.345,7.631-4.534,14.773-6.735,21.911-7.949,25.773-15.79,51.581-23.9,77.3a125.623,125.623,0,0,0-5.764,38.666c.18,46.819.038,93.639.018,140.458,0,1.639.01,3.278-.024,4.916-.1,4.567-1.23,5.88-5.869,5.947-10.063.144-20.13.161-30.194.112-4.045-.019-6.755-2.314-8.814-5.665q-9.986-16.24-20.1-32.4-39.275-63.034-78.568-126.057-12.685-20.345-25.423-40.656c-1.26-2-2.788-3.836-4.192-5.748l-.834.174a16.948,16.948,0,0,0-.891,3.879c.227,28.319.371,56.64.886,84.955.162,8.859,3.052,17.319,5.68,25.739q6.375,20.429,12.779,40.848,7.274,23.085,14.619,46.149c.423,1.338.87,2.676,1.168,4.044.559,2.563-.3,3.9-2.861,4.359a24.015,24.015,0,0,1-4.191.319q-30.9.028-61.8.006a30.717,30.717,0,0,1-3.738-.18c-3.468-.43-4.515-1.964-3.524-5.3,1.484-5,3.062-9.982,4.608-14.969q7.274-23.455,14.544-46.91,6.466-21.013,12.815-42.062a70.5,70.5,0,0,0,2.963-20.307q.156-40.849.1-81.7c0-9.766-3.551-18.367-8.748-26.487-9.12-14.25-18.1-28.594-27.047-42.95-1.679-2.693-2.963-5.633-4.65-8.883,1.221-.133,2.012-.293,2.8-.294C517.7.091,541.892.109,566.081.01c5.459-.021,9.315,2.259,12.162,6.847q28.3,45.617,56.713,91.168,32.792,52.6,65.66,105.157c1.132,1.811,2.5,3.476,3.753,5.209l.98-.271" transform="translate(-31.169 -0.001)" fill="#3c6a88"></path><path id="Pfad_3" data-name="Pfad 3" d="M457.972,79.121c-3.1-2.548-5.988-4.546-8.427-6.99-17.907-17.938-35.832-35.863-53.524-54.014C387.652,9.532,377.94,5.448,365.872,5.989c-11.449.513-22.934.152-34.4.23a47.173,47.173,0,0,0-6.293.466,8.049,8.049,0,0,0-7.233,6.924,33.43,33.43,0,0,0-.559,6.04q-.049,54.427-.019,108.855c.006,10.328,3.248,13.557,13.616,13.63,7.412.052,14.827-.054,22.239.052a28.419,28.419,0,0,0,21.45-8.735q19.062-19.167,38.253-38.207c2.913-2.879,6.215-5.363,9.891-8.5V202.719c-3.135-2.378-6.1-4.159-8.49-6.519q-19.242-18.982-38.219-38.233c-6.656-6.773-14.385-10.36-24-10.044-8.029.265-16.074.024-24.11.138-5.08.072-8.647,2.447-9.824,6.46a18.307,18.307,0,0,0-.752,5.068q-.06,56.3.031,112.6a16.679,16.679,0,0,0,1.356,6.559c1.744,3.928,5.461,4.923,9.354,4.99,6.943.119,13.889.022,20.834.038,7.257.019,14.52-.115,21.769.148,8.778.318,15.893-2.912,21.987-9.057q27.527-27.756,55.2-55.371c2.888-2.881,6.159-5.377,9.744-8.475a23.31,23.31,0,0,1,.634,3.294c.156,8.345.321,16.69.373,25.036.085,13.888.09,27.776.128,41.664,0,.625.013,1.248.008,1.873-.052,5.491-1.827,7.355-7.307,7.367-13.656.031-27.311-.023-40.966-.021q-78.656.014-157.312.044c-7.864,0-9.221-1.388-9.221-9.275q0-135.424,0-270.848c0-1.56-.041-3.127.069-4.681C244.33,2.13,246.106.3,249.448.153,252.72.009,256,.073,259.278.072q95.395,0,190.788,0c7.693,0,8.775,1.116,8.756,8.807q-.07,29.144-.108,58.288c-.009,3.119-.188,6.238-.323,9.356-.028.656-.205,1.305-.419,2.6" transform="translate(-15.499 -0.004)" fill="#3c6a88"></path><path id="Pfad_4" data-name="Pfad 4" d="M989.641,79.082c-2.94-2.317-5.642-4.049-7.867-6.262Q956.722,47.9,931.853,22.8c-6.332-6.4-13.061-12.2-21.9-14.627a55.5,55.5,0,0,0-13.342-2.028c-10.839-.241-21.688,0-32.532.082a38.589,38.589,0,0,0-4.894.381,8.657,8.657,0,0,0-7.927,7.938,36.452,36.452,0,0,0-.292,4.9q-.018,126.529,0,253.057c0,10.114,3.163,13.309,13.333,13.328,6.156.011,12.386.278,18.452-.538,11.384-1.533,20.072-8.223,27.564-16.434,8.869-9.72,13.07-21.58,14.038-34.482,1.918-25.558.922-51.164.58-76.75-.1-7.741-4.178-11.659-12.091-11.845-8.58-.2-17.167-.048-25.749-.184a26.479,26.479,0,0,1-6.2-.994,2.375,2.375,0,0,1-1.322-1.912,3.24,3.24,0,0,1,1.523-2.355,17.111,17.111,0,0,1,5.074-.642q52.555-.084,105.109-.09c5.429,0,7.157,1.705,7.156,7.146q-.011,68.355-.1,136.712c0,2.589-.451,5.178-.76,8.494-3.295-2.584-6.132-4.506-8.619-6.806Q964.3,262.343,939.77,239.41a29.385,29.385,0,0,0-3.416-2.831c-2.5-1.7-4.212-1.277-5.378,1.541-1.428,3.454-2.633,7-3.838,10.545-3.527,10.367-8.28,20.012-16.036,27.954-10.038,10.28-22.581,14.716-36.587,15.5-22.164,1.247-40.971-6.573-56.858-21.738-20.768-19.825-34.507-43.859-42.167-71.433a201.141,201.141,0,0,1-7.4-63.193c1.593-35.413,13.164-67.374,33.65-96.225,9.594-13.513,21.2-24.686,36.082-32.253A62.55,62.55,0,0,1,867.02.089C905.411.274,943.8.1,982.2.057c.468,0,.937,0,1.4.007,5.121.1,7.084,2.019,7.079,7.145-.016,15.45-.029,30.9-.149,46.349-.06,7.639-.348,15.276-.547,22.913-.016.609-.155,1.215-.343,2.611" transform="translate(-48.775 -0.004)" fill="#3c6a88"></path></g><g id="Gruppe_69" data-name="Gruppe 69" clip-path="url(#clip-path)"><path id="Pfad_55" data-name="Pfad 55" d="M.1,144.4Q.1,76.168.1,7.933C.1.891.859.128,7.856.12Q64.268.054,120.68,0c14.957-.017,29.15,3.029,42.041,10.882,14.987,9.131,24.989,22.415,31.023,38.68a133.7,133.7,0,0,1,7.321,64c-2.273,18.034-7.851,35.021-18.854,49.754-13.631,18.254-32.483,26.788-54.825,27.8-12.849.581-25.74.273-38.612.377-2.027.017-4.067-.027-6.079.184-6.031.634-9.078,3.787-9.587,9.834-.13,1.551-.1,3.118-.1,4.678q.008,37.1.032,74.2c0,.78.008,1.56,0,2.341-.065,5.578-2.048,7.552-7.708,7.556q-28.555.021-57.11,0C1.87,290.287,0,288.425,0,282.04Q-.007,213.221,0,144.4ZM122.755,95.678h-.016q0-38.161-.007-76.321a37.231,37.231,0,0,0-.152-3.974c-.549-5.168-3.5-8.3-8.689-8.8a111.511,111.511,0,0,0-11.682-.431c-6.939.065-13.887.146-20.811.559-4.41.262-6.913,2.578-7.645,6.919a63.306,63.306,0,0,0-.742,10.464q-.069,70.585-.025,141.171c0,3.276-.084,6.566.17,9.827.493,6.278,2.964,8.892,9.122,9.967a23.619,23.619,0,0,0,3.956.338c7.8.029,15.608.066,23.41-.026a30.02,30.02,0,0,0,6.242-.8c2.928-.667,5.185-2.429,5.852-5.431a39.107,39.107,0,0,0,.973-8.308c.072-25.049.042-50.1.042-75.15" transform="translate(0 0)" fill="#3c6a88"></path><path id="Pfad_56" data-name="Pfad 56" d="M705.35,208.119a28.917,28.917,0,0,0,.847-4.931q.049-38.626-.05-77.251c-.032-9.633-2.676-18.784-5.607-27.861q-7.362-22.813-14.665-45.644-6.959-21.838-13.8-43.713c-.258-.818-.45-1.656-.685-2.48-1.186-4.155.024-6,4.355-6.037C687.368.1,699,.126,710.621.12c9.754,0,19.509-.037,29.261.06,2.756.027,5.508.466,8.512.739-2.345,7.631-4.534,14.773-6.735,21.911-7.949,25.773-15.79,51.581-23.9,77.3a125.623,125.623,0,0,0-5.764,38.666c.18,46.819.038,93.639.018,140.458,0,1.639.01,3.278-.024,4.916-.1,4.567-1.23,5.88-5.869,5.947-10.063.144-20.13.161-30.194.112-4.045-.019-6.755-2.314-8.814-5.665q-9.986-16.24-20.1-32.4-39.275-63.034-78.568-126.057-12.685-20.345-25.423-40.656c-1.26-2-2.788-3.836-4.192-5.748l-.834.174a16.948,16.948,0,0,0-.891,3.879c.227,28.319.371,56.64.886,84.955.162,8.859,3.052,17.319,5.68,25.739q6.375,20.429,12.779,40.848,7.274,23.085,14.619,46.149c.423,1.338.87,2.676,1.168,4.044.559,2.563-.3,3.9-2.861,4.359a24.015,24.015,0,0,1-4.191.319q-30.9.028-61.8.006a30.717,30.717,0,0,1-3.738-.18c-3.468-.43-4.515-1.964-3.524-5.3,1.484-5,3.062-9.982,4.608-14.969q7.274-23.455,14.544-46.91,6.466-21.013,12.815-42.062a70.5,70.5,0,0,0,2.963-20.307q.156-40.849.1-81.7c0-9.766-3.551-18.367-8.748-26.487-9.12-14.25-18.1-28.594-27.047-42.95-1.679-2.693-2.963-5.633-4.65-8.883,1.221-.133,2.012-.293,2.8-.294C517.7.091,541.892.109,566.081.01c5.459-.021,9.315,2.259,12.162,6.847q28.3,45.617,56.713,91.168,32.792,52.6,65.66,105.157c1.132,1.811,2.5,3.476,3.753,5.209l.98-.271" transform="translate(-31.169 -0.001)" fill="#3c6a88"></path><path id="Pfad_57" data-name="Pfad 57" d="M457.972,79.121c-3.1-2.548-5.988-4.546-8.427-6.99-17.907-17.938-35.832-35.863-53.524-54.014C387.652,9.532,377.94,5.448,365.872,5.989c-11.449.513-22.934.152-34.4.23a47.173,47.173,0,0,0-6.293.466,8.049,8.049,0,0,0-7.233,6.924,33.43,33.43,0,0,0-.559,6.04q-.049,54.427-.019,108.855c.006,10.328,3.248,13.557,13.616,13.63,7.412.052,14.827-.054,22.239.052a28.419,28.419,0,0,0,21.45-8.735q19.062-19.167,38.253-38.207c2.913-2.879,6.215-5.363,9.891-8.5V202.719c-3.135-2.378-6.1-4.159-8.49-6.519q-19.242-18.982-38.219-38.233c-6.656-6.773-14.385-10.36-24-10.044-8.029.265-16.074.024-24.11.138-5.08.072-8.647,2.447-9.824,6.46a18.307,18.307,0,0,0-.752,5.068q-.06,56.3.031,112.6a16.679,16.679,0,0,0,1.356,6.559c1.744,3.928,5.461,4.923,9.354,4.99,6.943.119,13.889.022,20.834.038,7.257.019,14.52-.115,21.769.148,8.778.318,15.893-2.912,21.987-9.057q27.527-27.756,55.2-55.371c2.888-2.881,6.159-5.377,9.744-8.475a23.31,23.31,0,0,1,.634,3.294c.156,8.345.321,16.69.373,25.036.085,13.888.09,27.776.128,41.664,0,.625.013,1.248.008,1.873-.052,5.491-1.827,7.355-7.307,7.367-13.656.031-27.311-.023-40.966-.021q-78.656.014-157.312.044c-7.864,0-9.221-1.388-9.221-9.275q0-135.424,0-270.848c0-1.56-.041-3.127.069-4.681C244.33,2.13,246.106.3,249.448.153,252.72.009,256,.073,259.278.072q95.395,0,190.788,0c7.693,0,8.775,1.116,8.756,8.807q-.07,29.144-.108,58.288c-.009,3.119-.188,6.238-.323,9.356-.028.656-.205,1.305-.419,2.6" transform="translate(-15.499 -0.004)" fill="#3c6a88"></path><path id="Pfad_58" data-name="Pfad 58" d="M989.641,79.082c-2.94-2.317-5.642-4.049-7.867-6.262Q956.722,47.9,931.853,22.8c-6.332-6.4-13.061-12.2-21.9-14.627a55.5,55.5,0,0,0-13.342-2.028c-10.839-.241-21.688,0-32.532.082a38.589,38.589,0,0,0-4.894.381,8.657,8.657,0,0,0-7.927,7.938,36.452,36.452,0,0,0-.292,4.9q-.018,126.529,0,253.057c0,10.114,3.163,13.309,13.333,13.328,6.156.011,12.386.278,18.452-.538,11.384-1.533,20.072-8.223,27.564-16.434,8.869-9.72,13.07-21.58,14.038-34.482,1.918-25.558.922-51.164.58-76.75-.1-7.741-4.178-11.659-12.091-11.845-8.58-.2-17.167-.048-25.749-.184a26.479,26.479,0,0,1-6.2-.994,2.375,2.375,0,0,1-1.322-1.912,3.24,3.24,0,0,1,1.523-2.355,17.111,17.111,0,0,1,5.074-.642q52.555-.084,105.109-.09c5.429,0,7.157,1.705,7.156,7.146q-.011,68.355-.1,136.712c0,2.589-.451,5.178-.76,8.494-3.295-2.584-6.132-4.506-8.619-6.806Q964.3,262.343,939.77,239.41a29.385,29.385,0,0,0-3.416-2.831c-2.5-1.7-4.212-1.277-5.378,1.541-1.428,3.454-2.633,7-3.838,10.545-3.527,10.367-8.28,20.012-16.036,27.954-10.038,10.28-22.581,14.716-36.587,15.5-22.164,1.247-40.971-6.573-56.858-21.738-20.768-19.825-34.507-43.859-42.167-71.433a201.141,201.141,0,0,1-7.4-63.193c1.593-35.413,13.164-67.374,33.65-96.225,9.594-13.513,21.2-24.686,36.082-32.253A62.55,62.55,0,0,1,867.02.089C905.411.274,943.8.1,982.2.057c.468,0,.937,0,1.4.007,5.121.1,7.084,2.019,7.079,7.145-.016,15.45-.029,30.9-.149,46.349-.06,7.639-.348,15.276-.547,22.913-.016.609-.155,1.215-.343,2.611" transform="translate(-48.775 -0.004)" fill="#3c6a88"></path></g></svg>