<?xml version="1.0" encoding="UTF-8" standalone="no"?>
<svg
   xmlns:dc="http://purl.org/dc/elements/1.1/"
   xmlns:cc="http://creativecommons.org/ns#"
   xmlns:rdf="http://www.w3.org/1999/02/22-rdf-syntax-ns#"
   xmlns:svg="http://www.w3.org/2000/svg"
   xmlns="http://www.w3.org/2000/svg"
   xmlns:sodipodi="http://sodipodi.sourceforge.net/DTD/sodipodi-0.dtd"
   xmlns:inkscape="http://www.inkscape.org/namespaces/inkscape"
   viewBox="0 0 377.48801 185.192"
   height="185.192"
   width="377.48801"
   xml:space="preserve"
   id="svg2"
   version="1.1"
   inkscape:version="0.91 r13725"
   sodipodi:docname="Service Concept_Logo.svg"><sodipodi:namedview
     pagecolor="#ffffff"
     bordercolor="#666666"
     borderopacity="1"
     objecttolerance="10"
     gridtolerance="10"
     guidetolerance="10"
     inkscape:pageopacity="0"
     inkscape:pageshadow="2"
     inkscape:window-width="1210"
     inkscape:window-height="615"
     id="namedview65"
     showgrid="false"
     inkscape:zoom="0.9242958"
     inkscape:cx="189.33333"
     inkscape:cy="93.333336"
     inkscape:window-x="625"
     inkscape:window-y="58"
     inkscape:window-maximized="0"
     inkscape:current-layer="svg2" /><metadata
     id="metadata8"><rdf:RDF><cc:Work
         rdf:about=""><dc:format>image/svg+xml</dc:format><dc:type
           rdf:resource="http://purl.org/dc/dcmitype/StillImage" /><dc:title></dc:title></cc:Work></rdf:RDF></metadata><defs
     id="defs6" /><g
     transform="matrix(1.3333333,0,0,-1.3333333,-0.33854132,185.93367)"
     id="g10"><g
       transform="scale(0.1,0.1)"
       id="g12"><path
         id="path14"
         style="fill:#bdbcbc;fill-opacity:1;fill-rule:nonzero;stroke:none"
         d="m 185.762,261.797 2442.44,0 0,18.0391 -2442.44,0 z"
         inkscape:connector-curvature="0" /><path
         id="path16"
         style="fill:#231f20;fill-opacity:1;fill-rule:evenodd;stroke:none"
         d="m 869.727,93.7148 c 0,3.379 1.195,6.2383 3.57,8.5942 2.394,2.343 5.265,3.535 8.629,3.535 3.344,0 6.199,-1.192 8.558,-3.559 2.379,-2.367 3.555,-5.2264 3.555,-8.5702 0,-3.3242 -1.187,-6.1992 -3.578,-8.6015 -2.402,-2.3945 -5.277,-3.5938 -8.621,-3.5938 -3.36,0 -6.223,1.1914 -8.578,3.5821 -2.356,2.3672 -3.535,5.2656 -3.535,8.6132"
         inkscape:connector-curvature="0" /><path
         id="path18"
         style="fill:#231f20;fill-opacity:1;fill-rule:evenodd;stroke:none"
         d="m 2036.12,93.7148 c 0,3.379 1.19,6.2383 3.57,8.5942 2.39,2.343 5.26,3.535 8.63,3.535 3.34,0 6.2,-1.192 8.56,-3.559 2.37,-2.367 3.55,-5.2264 3.55,-8.5702 0,-3.3242 -1.19,-6.1992 -3.58,-8.6015 -2.4,-2.3945 -5.27,-3.5938 -8.62,-3.5938 -3.36,0 -6.22,1.1914 -8.58,3.5821 -2.35,2.3672 -3.53,5.2656 -3.53,8.6132"
         inkscape:connector-curvature="0" /><path
         id="path20"
         style="fill:#231f20;fill-opacity:1;fill-rule:nonzero;stroke:none"
         d="m 86.9531,44.8281 -12.3906,0 -14.7148,97.7849 c -0.3868,2.567 -0.711,6.16 -0.9688,10.782 -0.2578,4.617 -0.5156,8.914 -0.7734,12.894 l -0.7735,0 c -0.3867,-3.98 -0.7461,-8.309 -1.0664,-12.992 -0.3203,-4.684 -0.6758,-8.246 -1.0664,-10.684 l -17.0351,-97.7849 -12.3907,0 -23.23434,145.1369 13.94144,0 12.9687,-97.0119 c 0.5196,-3.5937 0.9375,-7.1875 1.2617,-10.7812 0.3203,-3.5938 0.6758,-7.1875 1.0664,-10.7813 l 0.7735,0 c 0.5156,3.5938 0.9336,7.1875 1.2578,10.7813 0.3203,3.5937 0.8047,7.1875 1.4492,10.7812 l 16.8438,97.0119 11.6211,0 13.9375,-97.0119 c 0.5156,-3.5937 1,-7.1875 1.4492,-10.7812 0.457,-3.5938 0.9375,-7.1875 1.4531,-10.7813 l 0.7734,0 c 0.3907,3.5938 0.7422,7.1875 1.0703,10.7813 0.3204,3.5937 0.8008,7.1875 1.4493,10.7812 l 15.0976,97.0119 13.7499,0 L 86.9531,44.8281"
         inkscape:connector-curvature="0" /><path
         id="path22"
         style="fill:#231f20;fill-opacity:1;fill-rule:nonzero;stroke:none"
         d="m 163.355,102.191 -0.175,1.731 c -0.118,2.312 -0.266,5.164 -0.442,8.566 -0.179,3.403 -0.676,6.641 -1.5,9.719 -0.828,3.082 -2.09,5.715 -3.797,7.895 -1.707,2.179 -4.035,3.273 -6.976,3.273 -2.711,0 -4.945,-1.219 -6.711,-3.656 -1.766,-2.442 -3.152,-5.328 -4.152,-8.664 -0.997,-3.336 -1.676,-6.77 -2.028,-10.297 -0.351,-3.531 -0.531,-6.383 -0.531,-8.567 z m -26.488,-10.5894 0,-2.8828 c 0,-2.4415 0.145,-5.586 0.442,-9.4336 0.296,-3.8516 0.941,-7.5743 1.941,-11.1641 1,-3.5938 2.418,-6.6719 4.238,-9.2422 1.824,-2.5664 4.328,-3.8477 7.504,-3.8477 2.477,0 4.477,0.8321 6.008,2.504 1.531,1.664 2.707,3.7187 3.531,6.1562 0.821,2.4414 1.356,5.0039 1.586,7.6992 0.238,2.6953 0.356,5.0078 0.356,6.9336 l 11.832,0 c 0,-3.7226 -0.383,-7.6367 -1.145,-11.7461 -0.769,-4.1054 -2.004,-7.8906 -3.711,-11.3554 -1.707,-3.4649 -3.972,-6.3204 -6.801,-8.5665 -2.824,-2.246 -6.355,-3.3671 -10.593,-3.3671 -6.008,0 -10.77,1.6992 -14.305,5.1015 -3.531,3.3985 -6.242,7.668 -8.121,12.8008 -1.887,5.1328 -3.121,10.6172 -3.711,16.457 -0.59,5.8399 -0.883,11.2578 -0.883,16.2657 0,2.9492 0.117,6.2539 0.356,9.9099 0.234,3.66 0.671,7.379 1.324,11.168 0.644,3.785 1.586,7.504 2.824,11.164 1.238,3.656 2.797,6.864 4.68,9.625 1.883,2.758 4.148,5.004 6.797,6.735 2.648,1.734 5.796,2.601 9.449,2.601 5.297,0 9.566,-1.668 12.805,-5.008 3.238,-3.336 5.707,-7.441 7.414,-12.32 1.707,-4.875 2.859,-10.039 3.445,-15.492 0.586,-5.453 0.883,-10.363 0.883,-14.7267 l 0,-5.9687 -38.145,0"
         inkscape:connector-curvature="0" /><path
         id="path24"
         style="fill:#231f20;fill-opacity:1;fill-rule:nonzero;stroke:none"
         d="m 202.25,130.484 0.352,0 c 0.586,1.672 1.351,3.403 2.293,5.2 0.941,1.796 2.035,3.398 3.269,4.812 1.234,1.41 2.648,2.535 4.238,3.371 1.586,0.832 3.325,1.25 5.207,1.25 l 0,-14.633 -2.293,0.196 c -2.941,0 -5.296,-0.739 -7.062,-2.215 -1.77,-1.473 -3.09,-3.496 -3.973,-6.063 -0.886,-2.566 -1.445,-5.55 -1.679,-8.953 -0.239,-3.398 -0.352,-7.09 -0.352,-11.066 l 0,-57.5549 -11.48,0 0,98.7499 11.48,0 0,-13.094"
         inkscape:connector-curvature="0" /><path
         id="path26"
         style="fill:#231f20;fill-opacity:1;fill-rule:nonzero;stroke:none"
         d="m 264.199,132.027 -15.008,0 0,-87.1989 -11.48,0 0,87.1989 -9.711,0 0,11.551 9.711,0 0,26.945 11.48,0 0,-26.945 15.008,0 0,-11.551"
         inkscape:connector-curvature="0" /><path
         id="path28"
         style="fill:#231f20;fill-opacity:1;fill-rule:nonzero;stroke:none"
         d="m 311.152,102.191 -0.175,1.731 c -0.118,2.312 -0.266,5.164 -0.442,8.566 -0.18,3.403 -0.68,6.641 -1.504,9.719 -0.824,3.082 -2.09,5.715 -3.793,7.895 -1.707,2.179 -4.035,3.273 -6.976,3.273 -2.711,0 -4.95,-1.219 -6.715,-3.656 -1.766,-2.442 -3.149,-5.328 -4.149,-8.664 -1,-3.336 -1.679,-6.77 -2.027,-10.297 -0.355,-3.531 -0.531,-6.383 -0.531,-8.567 z m -26.488,-10.5894 0,-2.8828 c 0,-2.4415 0.145,-5.586 0.441,-9.4336 0.293,-3.8516 0.942,-7.5743 1.942,-11.1641 1,-3.5938 2.414,-6.6719 4.238,-9.2422 1.824,-2.5664 4.324,-3.8477 7.504,-3.8477 2.473,0 4.473,0.8321 6.004,2.504 1.531,1.664 2.707,3.7187 3.535,6.1562 0.82,2.4414 1.352,5.0039 1.586,7.6992 0.238,2.6953 0.356,5.0078 0.356,6.9336 l 11.832,0 c 0,-3.7226 -0.383,-7.6367 -1.149,-11.7461 -0.765,-4.1054 -2.004,-7.8906 -3.707,-11.3554 -1.707,-3.4649 -3.973,-6.3204 -6.801,-8.5665 -2.824,-2.246 -6.355,-3.3671 -10.593,-3.3671 -6.008,0 -10.774,1.6992 -14.309,5.1015 -3.531,3.3985 -6.238,7.668 -8.121,12.8008 -1.883,5.1328 -3.121,10.6172 -3.707,16.457 -0.594,5.8399 -0.883,11.2578 -0.883,16.2657 0,2.9492 0.113,6.2539 0.352,9.9099 0.238,3.66 0.675,7.379 1.324,11.168 0.648,3.785 1.59,7.504 2.828,11.164 1.234,3.656 2.793,6.864 4.676,9.625 1.886,2.758 4.152,5.004 6.8,6.735 2.649,1.734 5.797,2.601 9.45,2.601 5.297,0 9.566,-1.668 12.804,-5.008 3.235,-3.336 5.704,-7.441 7.414,-12.32 1.708,-4.875 2.856,-10.039 3.446,-15.492 0.586,-5.453 0.883,-10.363 0.883,-14.7267 l 0,-5.9687 -38.145,0"
         inkscape:connector-curvature="0" /><path
         id="path30"
         style="fill:#231f20;fill-opacity:1;fill-rule:nonzero;stroke:none"
         d="m 418.141,102.191 -0.176,1.731 c -0.117,2.312 -0.266,5.164 -0.442,8.566 -0.179,3.403 -0.679,6.641 -1.503,9.719 -0.825,3.082 -2.09,5.715 -3.793,7.895 -1.707,2.179 -4.036,3.273 -6.977,3.273 -2.711,0 -4.949,-1.219 -6.715,-3.656 -1.765,-2.442 -3.148,-5.328 -4.148,-8.664 -1,-3.336 -1.68,-6.77 -2.028,-10.297 -0.355,-3.531 -0.531,-6.383 -0.531,-8.567 z m -26.489,-10.5894 0,-2.8828 c 0,-2.4415 0.145,-5.586 0.442,-9.4336 0.293,-3.8516 0.941,-7.5743 1.941,-11.1641 1,-3.5938 2.414,-6.6719 4.238,-9.2422 1.825,-2.5664 4.325,-3.8477 7.504,-3.8477 2.473,0 4.473,0.8321 6.004,2.504 1.531,1.664 2.707,3.7187 3.531,6.1562 0.825,2.4414 1.356,5.0039 1.59,7.6992 0.239,2.6953 0.356,5.0078 0.356,6.9336 l 11.832,0 c 0,-3.7226 -0.383,-7.6367 -1.149,-11.7461 -0.765,-4.1054 -2.003,-7.8906 -3.711,-11.3554 -1.703,-3.4649 -3.968,-6.3204 -6.796,-8.5665 -2.825,-2.246 -6.356,-3.3671 -10.594,-3.3671 -6.008,0 -10.774,1.6992 -14.309,5.1015 -3.531,3.3985 -6.238,7.668 -8.121,12.8008 -1.883,5.1328 -3.121,10.6172 -3.707,16.457 -0.594,5.8399 -0.883,11.2578 -0.883,16.2657 0,2.9492 0.114,6.2539 0.352,9.9099 0.238,3.66 0.676,7.379 1.324,11.168 0.649,3.785 1.59,7.504 2.828,11.164 1.235,3.656 2.793,6.864 4.676,9.625 1.887,2.758 4.148,5.004 6.801,6.735 2.648,1.734 5.797,2.601 9.449,2.601 5.297,0 9.566,-1.668 12.805,-5.008 3.234,-3.336 5.703,-7.441 7.414,-12.32 1.707,-4.875 2.855,-10.039 3.445,-15.492 0.586,-5.453 0.883,-10.363 0.883,-14.7267 l 0,-5.9687 -38.145,0"
         inkscape:connector-curvature="0" /><path
         id="path32"
         style="fill:#231f20;fill-opacity:1;fill-rule:nonzero;stroke:none"
         d="m 460.953,130.484 0.352,0 c 0.59,1.672 1.355,3.403 2.297,5.2 0.937,1.796 2.031,3.398 3.265,4.812 1.238,1.41 2.649,2.535 4.238,3.371 1.586,0.832 3.325,1.25 5.207,1.25 l 0,-14.633 -2.292,0.196 c -2.942,0 -5.297,-0.739 -7.063,-2.215 -1.766,-1.473 -3.09,-3.496 -3.973,-6.063 -0.882,-2.566 -1.445,-5.55 -1.679,-8.953 -0.239,-3.398 -0.352,-7.09 -0.352,-11.066 l 0,-57.5549 -11.476,0 0,98.7499 11.476,0 0,-13.094"
         inkscape:connector-curvature="0" /><path
         id="path34"
         style="fill:#231f20;fill-opacity:1;fill-rule:nonzero;stroke:none"
         d="m 501.43,135.684 c 2.351,2.953 5.031,5.261 8.031,6.929 3.004,1.668 6.269,2.504 9.805,2.504 4.121,0 7.355,-0.898 9.711,-2.699 2.355,-1.793 4.089,-4.102 5.207,-6.926 1.117,-2.824 1.828,-6 2.121,-9.531 0.293,-3.527 0.441,-7.023 0.441,-10.488 l 0,-70.6449 -11.48,0 0,68.5269 c 0,7.7 -0.618,13.215 -1.852,16.551 -1.238,3.34 -4.035,5.008 -8.391,5.008 -3.293,0 -5.855,-0.867 -7.679,-2.602 -1.824,-1.73 -3.18,-3.91 -4.063,-6.542 -0.883,-2.629 -1.414,-5.454 -1.586,-8.469 -0.179,-3.016 -0.265,-5.809 -0.265,-8.371 l 0,-64.1019 -11.481,0 0,153.9919 11.481,0 0,-63.136"
         inkscape:connector-curvature="0" /><path
         id="path36"
         style="fill:#231f20;fill-opacity:1;fill-rule:nonzero;stroke:none"
         d="m 594.137,95.8398 c 0,5.3872 -0.145,10.4262 -0.442,15.1092 -0.293,4.684 -0.883,8.821 -1.765,12.414 -0.883,3.594 -2.149,6.418 -3.797,8.473 -1.649,2.051 -3.887,3.078 -6.707,3.078 -3.18,0 -5.684,-1.219 -7.508,-3.656 -1.824,-2.438 -3.18,-5.551 -4.063,-9.34 -0.882,-3.781 -1.41,-7.953 -1.585,-12.512 -0.18,-4.554 -0.266,-8.949 -0.266,-13.1833 0,-10.2657 0.351,-18.2539 1.055,-23.9649 0.711,-5.7109 1.652,-9.9453 2.832,-12.7031 1.175,-2.7617 2.554,-4.4609 4.148,-5.1016 1.586,-0.6406 3.207,-0.9609 4.856,-0.9609 2.824,0 5.089,0.7344 6.796,2.2148 1.711,1.4727 3.036,3.9102 3.977,7.3125 0.937,3.4024 1.586,7.793 1.941,13.1875 0.352,5.3868 0.528,11.9336 0.528,19.6328 z m 10.418,-51.0117 -11.473,0 0,7.6992 -0.355,0 c -1.649,-2.8242 -3.739,-5.0664 -6.27,-6.7343 -2.531,-1.6719 -5.445,-2.5039 -8.738,-2.5039 -3.653,0 -6.832,0.6718 -9.539,2.0195 -2.707,1.3476 -4.946,3.9492 -6.711,7.7969 -1.766,3.8515 -3.09,9.1406 -3.973,15.8789 -0.883,6.7383 -1.324,15.5 -1.324,26.2734 0,5.5192 0.144,11.2342 0.441,17.1332 0.293,5.902 1.176,11.265 2.649,16.074 1.468,4.812 3.711,8.789 6.711,11.933 3,3.145 7.269,4.719 12.8,4.719 3.18,0 5.856,-0.707 8.039,-2.117 2.176,-1.414 4.149,-3.465 5.915,-6.16 l 0.355,0 0,6.738 11.473,0 0,-98.7499"
         inkscape:connector-curvature="0" /><path
         id="path38"
         style="fill:#231f20;fill-opacity:1;fill-rule:nonzero;stroke:none"
         d="m 624.93,44.8281 11.4805,0 0,153.992 -11.4805,0 z"
         inkscape:connector-curvature="0" /><path
         id="path40"
         style="fill:#231f20;fill-opacity:1;fill-rule:nonzero;stroke:none"
         d="m 687.219,132.027 -15.008,0 0,-87.1989 -11.481,0 0,87.1989 -9.71,0 0,11.551 9.71,0 0,26.945 11.481,0 0,-26.945 15.008,0 0,-11.551"
         inkscape:connector-curvature="0" /><path
         id="path42"
         style="fill:#231f20;fill-opacity:1;fill-rule:nonzero;stroke:none"
         d="m 735.254,102.191 -0.176,1.731 c -0.121,2.312 -0.269,5.164 -0.445,8.566 -0.176,3.403 -0.676,6.641 -1.5,9.719 -0.824,3.082 -2.09,5.715 -3.797,7.895 -1.707,2.179 -4.031,3.273 -6.977,3.273 -2.707,0 -4.945,-1.219 -6.711,-3.656 -1.765,-2.442 -3.148,-5.328 -4.148,-8.664 -1,-3.336 -1.68,-6.77 -2.027,-10.297 -0.356,-3.531 -0.535,-6.383 -0.535,-8.567 z m -26.492,-10.5894 0,-2.8828 c 0,-2.4415 0.144,-5.586 0.441,-9.4336 0.297,-3.8516 0.942,-7.5743 1.945,-11.1641 1,-3.5938 2.414,-6.6719 4.235,-9.2422 1.828,-2.5664 4.328,-3.8477 7.504,-3.8477 2.476,0 4.476,0.8321 6.008,2.504 1.531,1.664 2.707,3.7187 3.531,6.1562 0.824,2.4414 1.355,5.0039 1.586,7.6992 0.238,2.6953 0.355,5.0078 0.355,6.9336 l 11.832,0 c 0,-3.7226 -0.383,-7.6367 -1.144,-11.7461 -0.77,-4.1054 -2.004,-7.8906 -3.711,-11.3554 -1.707,-3.4649 -3.973,-6.3204 -6.801,-8.5665 -2.824,-2.246 -6.355,-3.3671 -10.594,-3.3671 -6.004,0 -10.769,1.6992 -14.304,5.1015 -3.532,3.3985 -6.239,7.668 -8.122,12.8008 -1.886,5.1328 -3.121,10.6172 -3.707,16.457 -0.593,5.8399 -0.886,11.2578 -0.886,16.2657 0,2.9492 0.117,6.2539 0.355,9.9099 0.235,3.66 0.676,7.379 1.324,11.168 0.645,3.785 1.586,7.504 2.825,11.164 1.238,3.656 2.796,6.864 4.679,9.625 1.883,2.758 4.149,5.004 6.801,6.735 2.645,1.734 5.797,2.601 9.445,2.601 5.301,0 9.567,-1.668 12.805,-5.008 3.238,-3.336 5.707,-7.441 7.414,-12.32 1.707,-4.875 2.86,-10.039 3.445,-15.492 0.586,-5.453 0.887,-10.363 0.887,-14.7267 l 0,-5.9687 -38.148,0"
         inkscape:connector-curvature="0" /><path
         id="path44"
         style="fill:#231f20;fill-opacity:1;fill-rule:nonzero;stroke:none"
         d="m 775.664,135.684 c 2.356,2.953 5.035,5.261 8.035,6.929 3.004,1.668 6.27,2.504 9.801,2.504 4.004,0 7.184,-0.898 9.539,-2.699 2.356,-1.793 4.121,-4.137 5.297,-7.023 1.176,-2.887 1.914,-6.098 2.207,-9.625 0.293,-3.528 0.441,-6.961 0.441,-10.297 l 0,-70.6449 -11.48,0 0,69.2969 c 0,2.949 -0.086,5.676 -0.262,8.18 -0.18,2.504 -0.621,4.687 -1.324,6.547 -0.707,1.859 -1.738,3.336 -3.094,4.425 -1.351,1.094 -3.203,1.637 -5.562,1.637 -3.293,0 -5.856,-0.867 -7.68,-2.602 -1.824,-1.73 -3.18,-3.91 -4.062,-6.542 -0.883,-2.629 -1.415,-5.454 -1.586,-8.469 -0.18,-3.016 -0.27,-5.809 -0.27,-8.371 l 0,-64.1019 -11.476,0 0,98.7499 11.476,0 0,-7.894"
         inkscape:connector-curvature="0" /><path
         id="path46"
         style="fill:#231f20;fill-opacity:1;fill-rule:nonzero;stroke:none"
         d="m 984.781,121.441 30.379,0 0,-26.7574 c 0,-5.7774 -0.21,-11.7109 -0.62,-17.8047 -0.42,-6.0977 -1.53,-11.6484 -3.36,-16.6523 -1.82,-5.0039 -4.68,-9.1407 -8.56,-12.4141 -3.886,-3.2734 -9.245,-4.9102 -16.073,-4.9102 -7.063,0 -12.625,1.9258 -16.688,5.7774 -4.062,3.8476 -7.125,9.207 -9.183,16.0703 -2.059,6.8672 -3.387,15.082 -3.973,24.6406 -0.586,9.5586 -0.883,20.0504 -0.883,31.4724 0,8.598 0.352,17.133 1.059,25.598 0.707,8.473 2.148,16.078 4.328,22.812 2.176,6.739 5.387,12.192 9.621,16.36 4.242,4.176 9.891,6.258 16.953,6.258 4.008,0 7.508,-0.672 10.508,-2.024 3.001,-1.344 5.591,-3.238 7.771,-5.676 2.18,-2.437 4,-5.328 5.48,-8.664 1.47,-3.336 2.62,-6.992 3.44,-10.968 l -12.19,-5.2 c -0.35,2.184 -0.85,4.43 -1.5,6.739 -0.65,2.308 -1.524,4.394 -2.645,6.257 -1.118,1.86 -2.504,3.399 -4.149,4.618 -1.652,1.218 -3.707,1.832 -6.184,1.832 -4.589,0 -8.21,-1.77 -10.859,-5.297 -2.652,-3.531 -4.621,-8.055 -5.914,-13.57 -1.297,-5.52 -2.121,-11.614 -2.477,-18.286 -0.347,-6.672 -0.527,-13.218 -0.527,-19.636 0,-13.473 0.383,-24.4769 1.149,-33.0121 0.761,-8.5312 1.941,-15.2383 3.531,-20.1133 1.586,-4.8789 3.594,-8.2461 6.004,-10.1054 2.414,-1.8594 5.207,-2.7891 8.39,-2.7891 3.532,0 6.297,0.7344 8.297,2.2109 2,1.4766 3.504,3.8828 4.504,7.2188 1,3.3359 1.65,7.6992 1.94,13.0898 0.3,5.3867 0.44,11.9336 0.44,19.6328 l 0,10.9726 -18.009,0 0,12.32"
         inkscape:connector-curvature="0" /><path
         id="path48"
         style="fill:#231f20;fill-opacity:1;fill-rule:nonzero;stroke:none"
         d="m 1071.43,102.191 -0.18,1.731 c -0.11,2.312 -0.26,5.164 -0.44,8.566 -0.18,3.403 -0.68,6.641 -1.5,9.719 -0.83,3.082 -2.09,5.715 -3.79,7.895 -1.71,2.179 -4.04,3.273 -6.98,3.273 -2.71,0 -4.95,-1.219 -6.72,-3.656 -1.76,-2.442 -3.14,-5.328 -4.14,-8.664 -1,-3.336 -1.68,-6.77 -2.03,-10.297 -0.36,-3.531 -0.53,-6.383 -0.53,-8.567 z m -26.49,-10.5894 0,-2.8828 c 0,-2.4415 0.15,-5.586 0.44,-9.4336 0.3,-3.8516 0.94,-7.5743 1.94,-11.1641 1,-3.5938 2.42,-6.6719 4.24,-9.2422 1.83,-2.5664 4.33,-3.8477 7.51,-3.8477 2.47,0 4.47,0.8321 6,2.504 1.53,1.664 2.71,3.7187 3.54,6.1562 0.82,2.4414 1.35,5.0039 1.58,7.6992 0.24,2.6953 0.36,5.0078 0.36,6.9336 l 11.83,0 c 0,-3.7226 -0.38,-7.6367 -1.15,-11.7461 -0.77,-4.1054 -2,-7.8906 -3.71,-11.3554 -1.7,-3.4649 -3.97,-6.3204 -6.8,-8.5665 -2.82,-2.246 -6.35,-3.3671 -10.59,-3.3671 -6.01,0 -10.77,1.6992 -14.31,5.1015 -3.53,3.3985 -6.24,7.668 -8.12,12.8008 -1.88,5.1328 -3.12,10.6172 -3.71,16.457 -0.59,5.8399 -0.88,11.2578 -0.88,16.2657 0,2.9492 0.12,6.2539 0.35,9.9099 0.24,3.66 0.68,7.379 1.33,11.168 0.64,3.785 1.59,7.504 2.82,11.164 1.24,3.656 2.8,6.864 4.68,9.625 1.89,2.758 4.15,5.004 6.8,6.735 2.65,1.734 5.8,2.601 9.45,2.601 5.3,0 9.57,-1.668 12.8,-5.008 3.24,-3.336 5.71,-7.441 7.42,-12.32 1.7,-4.875 2.85,-10.039 3.44,-15.492 0.59,-5.453 0.89,-10.363 0.89,-14.7267 l 0,-5.9687 -38.15,0"
         inkscape:connector-curvature="0" /><path
         id="path50"
         style="fill:#231f20;fill-opacity:1;fill-rule:nonzero;stroke:none"
         d="m 1125.79,53.4922 c 2.35,0 4.35,0.6406 6,1.9219 1.65,1.2851 2.97,3.5312 3.97,6.7382 1.01,3.2071 1.74,7.5743 2.21,13.0899 0.47,5.5195 0.71,12.5117 0.71,20.9805 0,5.6483 -0.15,10.8433 -0.44,15.5893 -0.3,4.75 -0.95,8.825 -1.94,12.227 -1.01,3.399 -2.39,6.063 -4.16,7.988 -1.76,1.922 -4.06,2.887 -6.89,2.887 -3.53,0 -6.18,-1.574 -7.94,-4.719 -1.77,-3.14 -3,-6.8 -3.71,-10.968 -0.71,-4.172 -1.06,-8.375 -1.06,-12.61 0,-4.234 0,-7.4412 0,-9.6209 0,-3.082 0,-7.0586 0,-11.9375 0,-4.875 0.38,-9.6563 1.15,-14.3398 0.76,-4.6836 2.06,-8.7266 3.88,-12.129 1.83,-3.3984 4.57,-5.0976 8.22,-5.0976 z m -23.67,145.3278 11.48,0 0,-61.98 0.35,0 c 1.65,2.82 3.59,4.906 5.83,6.254 2.24,1.347 5.01,2.023 8.3,2.023 5.3,0 9.42,-1.539 12.36,-4.621 2.95,-3.078 5.18,-7.058 6.72,-11.934 1.52,-4.874 2.46,-10.269 2.82,-16.171 0.35,-5.899 0.53,-11.614 0.53,-17.1332 0,-6.2851 -0.21,-12.5117 -0.62,-18.6719 -0.41,-6.1562 -1.32,-11.707 -2.73,-16.6445 -1.42,-4.9414 -3.57,-8.9531 -6.45,-12.0352 -2.89,-3.0781 -6.8,-4.6171 -11.75,-4.6171 -3.29,0 -6.21,0.832 -8.74,2.5039 -2.53,1.6679 -4.62,3.9101 -6.27,6.7343 l -0.35,0 0,-7.6992 -11.48,0 0,153.9919"
         inkscape:connector-curvature="0" /><path
         id="path52"
         style="fill:#231f20;fill-opacity:1;fill-rule:nonzero;stroke:none"
         d="m 1196.73,172.449 c 0,2.438 0.8,4.524 2.39,6.258 1.59,1.731 3.5,2.598 5.74,2.598 2.24,0 4.15,-0.867 5.74,-2.598 1.59,-1.734 2.38,-3.82 2.38,-6.258 0,-2.437 -0.79,-4.523 -2.38,-6.254 -1.59,-1.734 -3.5,-2.601 -5.74,-2.601 -2.24,0 -4.15,0.867 -5.74,2.601 -1.59,1.731 -2.39,3.817 -2.39,6.254 z m -24.72,0 c 0,2.438 0.8,4.524 2.38,6.258 1.59,1.731 3.51,2.598 5.75,2.598 2.23,0 4.15,-0.867 5.74,-2.598 1.58,-1.734 2.38,-3.82 2.38,-6.258 0,-2.437 -0.8,-4.523 -2.38,-6.254 -1.59,-1.734 -3.51,-2.601 -5.74,-2.601 -2.24,0 -4.16,0.867 -5.75,2.601 -1.58,1.731 -2.38,3.817 -2.38,6.254 z m 32.85,-76.6092 c 0,5.3872 -0.15,10.4262 -0.44,15.1092 -0.3,4.684 -0.88,8.821 -1.77,12.414 -0.88,3.594 -2.15,6.418 -3.79,8.473 -1.65,2.051 -3.89,3.078 -6.72,3.078 -3.18,0 -5.68,-1.219 -7.5,-3.656 -1.82,-2.438 -3.18,-5.551 -4.06,-9.34 -0.88,-3.781 -1.41,-7.953 -1.59,-12.512 -0.18,-4.554 -0.27,-8.949 -0.27,-13.1833 0,-10.2657 0.36,-18.2539 1.06,-23.9649 0.71,-5.7109 1.65,-9.9453 2.83,-12.7031 1.18,-2.7617 2.56,-4.4609 4.15,-5.1016 1.59,-0.6406 3.2,-0.9609 4.86,-0.9609 2.82,0 5.09,0.7344 6.79,2.2148 1.71,1.4727 3.04,3.9102 3.98,7.3125 0.94,3.4024 1.59,7.793 1.94,13.1875 0.35,5.3868 0.53,11.9336 0.53,19.6328 z m 10.42,-51.0117 -11.48,0 0,7.6992 -0.35,0 c -1.65,-2.8242 -3.74,-5.0664 -6.27,-6.7343 -2.54,-1.6719 -5.45,-2.5039 -8.74,-2.5039 -3.65,0 -6.83,0.6718 -9.54,2.0195 -2.71,1.3476 -4.94,3.9492 -6.71,7.7969 -1.76,3.8515 -3.09,9.1406 -3.98,15.8789 -0.87,6.7383 -1.32,15.5 -1.32,26.2734 0,5.5192 0.15,11.2342 0.45,17.1332 0.28,5.902 1.17,11.265 2.64,16.074 1.47,4.812 3.71,8.789 6.72,11.933 3,3.145 7.26,4.719 12.8,4.719 3.17,0 5.85,-0.707 8.03,-2.117 2.18,-1.414 4.15,-3.465 5.92,-6.16 l 0.35,0 0,6.738 11.48,0 0,-98.7499"
         inkscape:connector-curvature="0" /><path
         id="path54"
         style="fill:#231f20;fill-opacity:1;fill-rule:nonzero;stroke:none"
         d="m 1250.5,143.578 0,-61.9842 c 0,-3.336 0.08,-6.6094 0.26,-9.8165 0.18,-3.207 0.68,-6.0625 1.5,-8.5664 0.82,-2.5039 2.03,-4.4882 3.62,-5.9648 1.59,-1.4805 3.8,-2.2149 6.62,-2.2149 2.95,0 5.24,0.7344 6.89,2.2149 1.65,1.4766 2.86,3.4609 3.62,5.9648 0.76,2.5039 1.26,5.3594 1.5,8.5664 0.24,3.2071 0.35,6.4805 0.35,9.8165 l 0,61.9842 11.48,0 0,-72.5702 c 0,-8.3398 -1.91,-15.0469 -5.73,-20.1172 -3.83,-5.0664 -9.81,-7.6015 -17.93,-7.6015 -8.12,0 -14.1,2.5039 -17.93,7.5078 -3.82,5.0039 -5.73,11.7383 -5.73,20.2109 l 0,72.5702 11.48,0"
         inkscape:connector-curvature="0" /><path
         id="path56"
         style="fill:#231f20;fill-opacity:1;fill-rule:nonzero;stroke:none"
         d="m 1342.45,95.8398 c 0,5.6442 -0.18,10.8402 -0.54,15.5902 -0.35,4.746 -0.96,8.855 -1.85,12.316 -0.88,3.469 -2.18,6.195 -3.88,8.184 -1.71,1.988 -3.86,2.984 -6.45,2.984 -3.18,0 -5.68,-1.348 -7.5,-4.043 -1.83,-2.695 -3.18,-6.031 -4.07,-10.008 -0.88,-3.98 -1.41,-8.211 -1.59,-12.707 -0.17,-4.488 -0.26,-8.4685 -0.26,-11.9333 0,-1.5391 -0.03,-3.6563 -0.09,-6.3516 -0.06,-2.6953 0,-5.6484 0.18,-8.8555 0.17,-3.207 0.47,-6.414 0.88,-9.625 0.41,-3.207 1.09,-6.1601 2.03,-8.8554 0.94,-2.6914 2.21,-4.875 3.8,-6.5391 1.59,-1.6719 3.62,-2.5039 6.09,-2.5039 3.06,0 5.48,0.9961 7.24,2.9805 1.77,1.9921 3.1,4.8125 3.97,8.4726 0.89,3.6563 1.45,8.082 1.68,13.2813 0.24,5.1953 0.36,11.0664 0.36,17.6132 z m -1.06,-43.3125 -0.36,0 c -1.65,-2.8242 -3.74,-5.0664 -6.27,-6.7343 -2.53,-1.6719 -5.44,-2.5039 -8.74,-2.5039 -4.71,0 -8.47,1.4414 -11.3,4.332 -2.83,2.8867 -5.01,6.7344 -6.54,11.5469 -1.52,4.8125 -2.53,10.332 -3,16.5547 -0.47,6.2265 -0.7,12.7382 -0.7,19.5351 0,6.6762 0.23,13.0622 0.7,19.1562 0.47,6.094 1.51,11.391 3.09,15.879 1.59,4.492 3.86,8.086 6.8,10.781 2.95,2.696 6.95,4.043 12.01,4.043 3.18,0 5.86,-0.707 8.04,-2.117 2.17,-1.414 4.15,-3.465 5.91,-6.16 l 0.36,0 0,61.98 11.47,0 0,-153.9919 -11.47,0 0,7.6992"
         inkscape:connector-curvature="0" /><path
         id="path58"
         style="fill:#231f20;fill-opacity:1;fill-rule:nonzero;stroke:none"
         d="m 1412.09,102.191 -0.18,1.731 c -0.12,2.312 -0.26,5.164 -0.44,8.566 -0.18,3.403 -0.68,6.641 -1.5,9.719 -0.83,3.082 -2.09,5.715 -3.8,7.895 -1.7,2.179 -4.03,3.273 -6.97,3.273 -2.71,0 -4.95,-1.219 -6.72,-3.656 -1.76,-2.442 -3.14,-5.328 -4.14,-8.664 -1,-3.336 -1.68,-6.77 -2.03,-10.297 -0.36,-3.531 -0.54,-6.383 -0.54,-8.567 z m -26.49,-10.5894 0,-2.8828 c 0,-2.4415 0.15,-5.586 0.44,-9.4336 0.3,-3.8516 0.94,-7.5743 1.94,-11.1641 1,-3.5938 2.42,-6.6719 4.24,-9.2422 1.83,-2.5664 4.33,-3.8477 7.5,-3.8477 2.48,0 4.48,0.8321 6.01,2.504 1.53,1.664 2.71,3.7187 3.53,6.1562 0.83,2.4414 1.36,5.0039 1.59,7.6992 0.24,2.6953 0.35,5.0078 0.35,6.9336 l 11.84,0 c 0,-3.7226 -0.39,-7.6367 -1.15,-11.7461 -0.77,-4.1054 -2,-7.8906 -3.71,-11.3554 -1.71,-3.4649 -3.97,-6.3204 -6.8,-8.5665 -2.82,-2.246 -6.35,-3.3671 -10.59,-3.3671 -6.01,0 -10.77,1.6992 -14.31,5.1015 -3.53,3.3985 -6.24,7.668 -8.12,12.8008 -1.88,5.1328 -3.12,10.6172 -3.71,16.457 -0.59,5.8399 -0.88,11.2578 -0.88,16.2657 0,2.9492 0.11,6.2539 0.35,9.9099 0.24,3.66 0.68,7.379 1.33,11.168 0.64,3.785 1.59,7.504 2.82,11.164 1.24,3.656 2.8,6.864 4.68,9.625 1.89,2.758 4.15,5.004 6.8,6.735 2.65,1.734 5.8,2.601 9.45,2.601 5.3,0 9.57,-1.668 12.8,-5.008 3.24,-3.336 5.71,-7.441 7.42,-12.32 1.7,-4.875 2.85,-10.039 3.44,-15.492 0.59,-5.453 0.89,-10.363 0.89,-14.7267 l 0,-5.9687 -38.15,0"
         inkscape:connector-curvature="0" /><path
         id="path60"
         style="fill:#231f20;fill-opacity:1;fill-rule:nonzero;stroke:none"
         d="m 1496.14,135.301 0.36,0 c 2,2.949 4.5,5.324 7.5,7.117 3,1.801 6.21,2.699 9.62,2.699 3.77,0 7.13,-1.027 10.07,-3.082 2.95,-2.055 5.19,-4.937 6.71,-8.66 2.36,3.723 5.04,6.605 8.04,8.66 3,2.055 6.56,3.082 10.68,3.082 4.24,0 7.57,-0.836 9.98,-2.504 2.41,-1.668 4.24,-3.883 5.47,-6.64 1.24,-2.758 2.04,-5.903 2.39,-9.434 0.35,-3.527 0.53,-7.09 0.53,-10.684 l 0,-71.0269 -11.48,0 0,70.6449 c 0,2.308 -0.09,4.652 -0.26,7.023 -0.18,2.379 -0.63,4.461 -1.33,6.258 -0.71,1.797 -1.74,3.273 -3.09,4.426 -1.35,1.156 -3.21,1.734 -5.56,1.734 -3.42,0 -6.07,-0.93 -7.95,-2.793 -1.88,-1.859 -3.27,-4.234 -4.15,-7.121 -0.88,-2.887 -1.42,-6.062 -1.59,-9.527 -0.17,-3.465 -0.26,-6.739 -0.26,-9.817 l 0,-60.8279 -11.48,0 0,70.4529 c 0,2.309 -0.09,4.617 -0.27,6.926 -0.17,2.313 -0.59,4.43 -1.23,6.355 -0.65,1.922 -1.62,3.465 -2.92,4.618 -1.3,1.156 -3.12,1.734 -5.47,1.734 -3.53,0 -6.24,-1.059 -8.13,-3.176 -1.88,-2.117 -3.29,-4.746 -4.23,-7.894 -0.95,-3.145 -1.5,-6.543 -1.68,-10.203 -0.18,-3.657 -0.27,-7.024 -0.27,-10.102 l 0,-58.7109 -11.47,0 0,98.7499 11.47,0 0,-8.277"
         inkscape:connector-curvature="0" /><path
         id="path62"
         style="fill:#231f20;fill-opacity:1;fill-rule:nonzero;stroke:none"
         d="m 1627.68,95.8398 c 0,5.3872 -0.14,10.4262 -0.44,15.1092 -0.29,4.684 -0.88,8.821 -1.77,12.414 -0.88,3.594 -2.15,6.418 -3.79,8.473 -1.65,2.051 -3.89,3.078 -6.71,3.078 -3.18,0 -5.68,-1.219 -7.51,-3.656 -1.82,-2.438 -3.18,-5.551 -4.06,-9.34 -0.88,-3.781 -1.41,-7.953 -1.59,-12.512 -0.18,-4.554 -0.26,-8.949 -0.26,-13.1833 0,-10.2657 0.35,-18.2539 1.05,-23.9649 0.71,-5.7109 1.65,-9.9453 2.83,-12.7031 1.18,-2.7617 2.56,-4.4609 4.15,-5.1016 1.59,-0.6406 3.21,-0.9609 4.86,-0.9609 2.82,0 5.09,0.7344 6.79,2.2148 1.72,1.4727 3.04,3.9102 3.98,7.3125 0.94,3.4024 1.59,7.793 1.94,13.1875 0.35,5.3868 0.53,11.9336 0.53,19.6328 z m 10.42,-51.0117 -11.48,0 0,7.6992 -0.35,0 c -1.65,-2.8242 -3.74,-5.0664 -6.27,-6.7343 -2.53,-1.6719 -5.45,-2.5039 -8.74,-2.5039 -3.65,0 -6.83,0.6718 -9.54,2.0195 -2.7,1.3476 -4.94,3.9492 -6.71,7.7969 -1.76,3.8515 -3.09,9.1406 -3.97,15.8789 -0.88,6.7383 -1.33,15.5 -1.33,26.2734 0,5.5192 0.15,11.2342 0.45,17.1332 0.29,5.902 1.17,11.265 2.64,16.074 1.47,4.812 3.72,8.789 6.72,11.933 3,3.145 7.27,4.719 12.8,4.719 3.18,0 5.85,-0.707 8.04,-2.117 2.17,-1.414 4.14,-3.465 5.91,-6.16 l 0.35,0 0,6.738 11.48,0 0,-98.7499"
         inkscape:connector-curvature="0" /><path
         id="path64"
         style="fill:#231f20;fill-opacity:1;fill-rule:nonzero;stroke:none"
         d="m 1670.29,135.684 c 2.35,2.953 5.03,5.261 8.03,6.929 3,1.668 6.27,2.504 9.8,2.504 4,0 7.18,-0.898 9.54,-2.699 2.35,-1.793 4.12,-4.137 5.3,-7.023 1.17,-2.887 1.91,-6.098 2.2,-9.625 0.3,-3.528 0.45,-6.961 0.45,-10.297 l 0,-70.6449 -11.49,0 0,69.2969 c 0,2.949 -0.08,5.676 -0.26,8.18 -0.18,2.504 -0.62,4.687 -1.32,6.547 -0.71,1.859 -1.74,3.336 -3.09,4.425 -1.36,1.094 -3.21,1.637 -5.57,1.637 -3.29,0 -5.86,-0.867 -7.68,-2.602 -1.82,-1.73 -3.18,-3.91 -4.06,-6.542 -0.89,-2.629 -1.41,-5.454 -1.59,-8.469 -0.17,-3.016 -0.26,-5.809 -0.26,-8.371 l 0,-64.1019 -11.48,0 0,98.7499 11.48,0 0,-7.894"
         inkscape:connector-curvature="0" /><path
         id="path66"
         style="fill:#231f20;fill-opacity:1;fill-rule:nonzero;stroke:none"
         d="m 1762.42,95.8398 c 0,5.3872 -0.15,10.4262 -0.44,15.1092 -0.29,4.684 -0.88,8.821 -1.77,12.414 -0.88,3.594 -2.15,6.418 -3.79,8.473 -1.65,2.051 -3.89,3.078 -6.71,3.078 -3.18,0 -5.69,-1.219 -7.51,-3.656 -1.82,-2.438 -3.18,-5.551 -4.06,-9.34 -0.89,-3.781 -1.41,-7.953 -1.59,-12.512 -0.18,-4.554 -0.26,-8.949 -0.26,-13.1833 0,-10.2657 0.35,-18.2539 1.05,-23.9649 0.71,-5.7109 1.65,-9.9453 2.83,-12.7031 1.18,-2.7617 2.56,-4.4609 4.15,-5.1016 1.59,-0.6406 3.21,-0.9609 4.86,-0.9609 2.82,0 5.09,0.7344 6.79,2.2148 1.71,1.4727 3.04,3.9102 3.98,7.3125 0.94,3.4024 1.59,7.793 1.94,13.1875 0.36,5.3868 0.53,11.9336 0.53,19.6328 z m 10.42,-51.0117 -11.48,0 0,7.6992 -0.35,0 c -1.65,-2.8242 -3.74,-5.0664 -6.27,-6.7343 -2.53,-1.6719 -5.45,-2.5039 -8.74,-2.5039 -3.65,0 -6.83,0.6718 -9.54,2.0195 -2.71,1.3476 -4.94,3.9492 -6.71,7.7969 -1.77,3.8515 -3.09,9.1406 -3.97,15.8789 -0.89,6.7383 -1.33,15.5 -1.33,26.2734 0,5.5192 0.15,11.2342 0.44,17.1332 0.3,5.902 1.18,11.265 2.66,16.074 1.47,4.812 3.7,8.789 6.7,11.933 3,3.145 7.27,4.719 12.8,4.719 3.18,0 5.86,-0.707 8.04,-2.117 2.18,-1.414 4.15,-3.465 5.92,-6.16 l 0.35,0 0,6.738 11.48,0 0,-98.7499"
         inkscape:connector-curvature="0" /><path
         id="path68"
         style="fill:#231f20;fill-opacity:1;fill-rule:nonzero;stroke:none"
         d="m 1804.59,92.5664 c 0,-2.6953 0.06,-6.1602 0.18,-10.3945 0.11,-4.2344 0.61,-8.375 1.5,-12.4141 0.88,-4.043 2.29,-7.5117 4.23,-10.3945 1.95,-2.8906 4.74,-4.3321 8.39,-4.3321 3.06,0 5.45,1.1211 7.15,3.3672 1.71,2.2461 2.98,5.2618 3.8,9.0469 0.82,3.7852 1.33,8.1524 1.5,13.0899 0.18,4.9375 0.27,10.1054 0.27,15.496 0,4.4888 -0.12,9.0468 -0.36,13.6638 -0.23,4.621 -0.82,8.793 -1.76,12.512 -0.95,3.723 -2.3,6.77 -4.06,9.145 -1.77,2.375 -4.24,3.562 -7.42,3.562 -2.12,0 -4,-0.516 -5.65,-1.539 -1.65,-1.027 -3.03,-3.047 -4.15,-6.063 -1.12,-3.015 -2,-7.316 -2.65,-12.898 -0.65,-5.582 -0.97,-12.863 -0.97,-21.8476 z m 37.44,-51.3945 c 0,-4.6211 -0.15,-9.0781 -0.45,-13.3789 -0.29,-4.2969 -1.2,-8.086 -2.73,-11.3555 -1.53,-3.2734 -3.89,-5.9063 -7.06,-7.89062 -3.18,-1.99219 -7.66,-2.98438 -13.43,-2.98438 -8,0 -13.89,2.4375 -17.66,7.3125 -3.77,4.8789 -5.65,11.5508 -5.65,20.0195 l 0,3.6563 11.31,0 0,-1.7305 c 0,-2.3125 0.17,-4.5234 0.52,-6.6406 0.35,-2.1211 0.98,-3.9805 1.86,-5.582 0.88,-1.6055 2.12,-2.8907 3.71,-3.8516 1.59,-0.9609 3.62,-1.4453 6.09,-1.4453 3.18,0 5.59,0.707 7.24,2.1172 1.65,1.414 2.83,3.2109 3.53,5.3906 0.71,2.1797 1.06,4.6211 1.06,7.3164 0,2.6953 0,5.3906 0,8.082 l 0,11.5508 c -3.77,-4.6172 -8.65,-6.9297 -14.66,-6.9297 -5.65,0 -10.03,1.8594 -13.15,5.5821 -3.12,3.7226 -5.39,8.2773 -6.8,13.6679 -1.42,5.3907 -2.27,11.0352 -2.56,16.9375 -0.3,5.9063 -0.44,11.0391 -0.44,15.4024 0,4.102 0.2,8.949 0.62,14.531 0.41,5.582 1.38,10.91 2.91,15.977 1.53,5.066 3.8,9.367 6.8,12.898 3,3.528 7.15,5.293 12.45,5.293 3.06,0 5.85,-0.738 8.39,-2.215 2.53,-1.476 4.61,-3.5 6.27,-6.062 l 0.35,0 0,6.738 11.48,0 0,-102.4061"
         inkscape:connector-curvature="0" /><path
         id="path70"
         style="fill:#231f20;fill-opacity:1;fill-rule:nonzero;stroke:none"
         d="m 1899.29,102.191 -0.18,1.731 c -0.12,2.312 -0.26,5.164 -0.44,8.566 -0.18,3.403 -0.68,6.641 -1.5,9.719 -0.83,3.082 -2.09,5.715 -3.8,7.895 -1.71,2.179 -4.03,3.273 -6.98,3.273 -2.7,0 -4.94,-1.219 -6.71,-3.656 -1.76,-2.442 -3.14,-5.328 -4.14,-8.664 -1,-3.336 -1.68,-6.77 -2.03,-10.297 -0.36,-3.531 -0.54,-6.383 -0.54,-8.567 z m -26.49,-10.5894 0,-2.8828 c 0,-2.4415 0.14,-5.586 0.44,-9.4336 0.3,-3.8516 0.94,-7.5743 1.94,-11.1641 1,-3.5938 2.42,-6.6719 4.24,-9.2422 1.83,-2.5664 4.33,-3.8477 7.5,-3.8477 2.48,0 4.48,0.8321 6.01,2.504 1.53,1.664 2.71,3.7187 3.53,6.1562 0.83,2.4414 1.36,5.0039 1.59,7.6992 0.24,2.6953 0.35,5.0078 0.35,6.9336 l 11.83,0 c 0,-3.7226 -0.38,-7.6367 -1.14,-11.7461 -0.77,-4.1054 -2,-7.8906 -3.71,-11.3554 -1.71,-3.4649 -3.97,-6.3204 -6.8,-8.5665 -2.82,-2.246 -6.36,-3.3671 -10.59,-3.3671 -6.01,0 -10.78,1.6992 -14.31,5.1015 -3.53,3.3985 -6.24,7.668 -8.12,12.8008 -1.88,5.1328 -3.12,10.6172 -3.71,16.457 -0.59,5.8399 -0.89,11.2578 -0.89,16.2657 0,2.9492 0.12,6.2539 0.36,9.9099 0.23,3.66 0.68,7.379 1.32,11.168 0.65,3.785 1.59,7.504 2.83,11.164 1.24,3.656 2.8,6.864 4.68,9.625 1.89,2.758 4.15,5.004 6.8,6.735 2.65,1.734 5.8,2.601 9.44,2.601 5.31,0 9.57,-1.668 12.81,-5.008 3.24,-3.336 5.71,-7.441 7.42,-12.32 1.7,-4.875 2.85,-10.039 3.44,-15.492 0.59,-5.453 0.89,-10.363 0.89,-14.7267 l 0,-5.9687 -38.15,0"
         inkscape:connector-curvature="0" /><path
         id="path72"
         style="fill:#231f20;fill-opacity:1;fill-rule:nonzero;stroke:none"
         d="m 1943.77,135.684 c 2.35,2.953 5.03,5.261 8.03,6.929 3.01,1.668 6.27,2.504 9.81,2.504 4,0 7.18,-0.898 9.53,-2.699 2.36,-1.793 4.13,-4.137 5.3,-7.023 1.18,-2.887 1.92,-6.098 2.21,-9.625 0.29,-3.528 0.44,-6.961 0.44,-10.297 l 0,-70.6449 -11.48,0 0,69.2969 c 0,2.949 -0.09,5.676 -0.26,8.18 -0.18,2.504 -0.62,4.687 -1.33,6.547 -0.7,1.859 -1.73,3.336 -3.09,4.425 -1.35,1.094 -3.2,1.637 -5.56,1.637 -3.3,0 -5.86,-0.867 -7.68,-2.602 -1.83,-1.73 -3.18,-3.91 -4.07,-6.542 -0.88,-2.629 -1.41,-5.454 -1.58,-8.469 -0.18,-3.016 -0.27,-5.809 -0.27,-8.371 l 0,-64.1019 -11.47,0 0,98.7499 11.47,0 0,-7.894"
         inkscape:connector-curvature="0" /><path
         id="path74"
         style="fill:#231f20;fill-opacity:1;fill-rule:nonzero;stroke:none"
         d="m 2171.2,167.059 c -2.88,3.336 -5.95,6.129 -9.2,8.375 -3.26,2.242 -7.14,3.371 -11.65,3.371 -3.25,0 -6.16,-0.645 -8.73,-1.926 -2.57,-1.285 -4.72,-3.016 -6.48,-5.199 -1.75,-2.184 -3.07,-4.684 -3.94,-7.508 -0.88,-2.82 -1.32,-5.774 -1.32,-8.856 0,-4.234 0.69,-7.957 2.07,-11.164 1.37,-3.207 3.19,-6.093 5.44,-8.66 2.26,-2.566 4.86,-4.941 7.8,-7.125 2.94,-2.179 5.92,-4.297 8.92,-6.351 3.01,-2.18 5.95,-4.426 8.83,-6.735 2.88,-2.308 5.44,-4.941 7.7,-7.894 2.25,-2.949 4.07,-6.321 5.44,-10.1058 1.38,-3.7851 2.07,-8.1796 2.07,-13.1835 0,-5.2618 -0.81,-10.3633 -2.44,-15.3047 -1.63,-4.9414 -3.98,-9.336 -7.05,-13.1836 -3.06,-3.8516 -6.79,-6.9297 -11.17,-9.2422 -4.38,-2.3086 -9.33,-3.4649 -14.84,-3.4649 -4.01,0 -7.91,0.5782 -11.74,1.7344 -3.81,1.1563 -7.35,3.0156 -10.61,5.5821 l 0,17.5156 c 3.01,-3.336 6.45,-6.1289 10.34,-8.3711 3.88,-2.2461 8.07,-3.3672 12.58,-3.3672 3.5,0 6.6,0.7031 9.29,2.1172 2.7,1.4062 4.95,3.3359 6.77,5.7734 1.81,2.4375 3.16,5.1641 4.03,8.1797 0.88,3.0156 1.32,6.1914 1.32,9.5274 0,4.2343 -0.69,7.9257 -2.07,11.0703 -1.38,3.1445 -3.19,5.9961 -5.44,8.5629 -2.26,2.566 -4.83,4.91 -7.7,7.027 -2.88,2.117 -5.83,4.266 -8.83,6.449 -3,2.051 -5.95,4.266 -8.83,6.641 -2.88,2.371 -5.47,5.07 -7.79,8.086 -2.32,3.015 -4.17,6.449 -5.54,10.297 -1.38,3.851 -2.07,8.406 -2.07,13.668 0,4.875 0.72,9.621 2.16,14.242 1.44,4.621 3.54,8.726 6.29,12.32 2.76,3.594 6.14,6.481 10.15,8.66 4,2.18 8.63,3.274 13.89,3.274 4.26,0 8.2,-0.672 11.83,-2.024 3.64,-1.344 7.14,-3.238 10.52,-5.676 l 0,-17.132"
         inkscape:connector-curvature="0" /><path
         id="path76"
         style="fill:#231f20;fill-opacity:1;fill-rule:nonzero;stroke:none"
         d="m 2232.77,102.191 -0.18,1.731 c -0.12,2.312 -0.27,5.164 -0.44,8.566 -0.18,3.403 -0.68,6.641 -1.51,9.719 -0.82,3.082 -2.09,5.715 -3.79,7.895 -1.71,2.179 -4.03,3.273 -6.98,3.273 -2.71,0 -4.94,-1.219 -6.71,-3.656 -1.77,-2.442 -3.15,-5.328 -4.15,-8.664 -1,-3.336 -1.68,-6.77 -2.03,-10.297 -0.35,-3.531 -0.53,-6.383 -0.53,-8.567 z m -26.5,-10.5894 0,-2.8828 c 0,-2.4415 0.15,-5.586 0.45,-9.4336 0.29,-3.8516 0.94,-7.5743 1.94,-11.1641 1,-3.5938 2.41,-6.6719 4.24,-9.2422 1.82,-2.5664 4.32,-3.8477 7.5,-3.8477 2.48,0 4.48,0.8321 6.01,2.504 1.53,1.664 2.7,3.7187 3.53,6.1562 0.82,2.4414 1.35,5.0039 1.59,7.6992 0.24,2.6953 0.35,5.0078 0.35,6.9336 l 11.83,0 c 0,-3.7226 -0.38,-7.6367 -1.14,-11.7461 -0.77,-4.1054 -2.01,-7.8906 -3.71,-11.3554 -1.71,-3.4649 -3.97,-6.3204 -6.81,-8.5665 -2.82,-2.246 -6.35,-3.3671 -10.59,-3.3671 -6,0 -10.77,1.6992 -14.3,5.1015 -3.54,3.3985 -6.24,7.668 -8.12,12.8008 -1.89,5.1328 -3.13,10.6172 -3.71,16.457 -0.6,5.8399 -0.89,11.2578 -0.89,16.2657 0,2.9492 0.12,6.2539 0.36,9.9099 0.23,3.66 0.67,7.379 1.32,11.168 0.65,3.785 1.59,7.504 2.83,11.164 1.23,3.656 2.79,6.864 4.67,9.625 1.89,2.758 4.15,5.004 6.81,6.735 2.64,1.734 5.79,2.601 9.44,2.601 5.3,0 9.57,-1.668 12.81,-5.008 3.23,-3.336 5.7,-7.441 7.41,-12.32 1.71,-4.875 2.86,-10.039 3.45,-15.492 0.58,-5.453 0.88,-10.363 0.88,-14.7267 l 0,-5.9687 -38.15,0"
         inkscape:connector-curvature="0" /><path
         id="path78"
         style="fill:#231f20;fill-opacity:1;fill-rule:nonzero;stroke:none"
         d="m 2274.4,130.484 0.35,0 c 0.59,1.672 1.36,3.403 2.3,5.2 0.94,1.796 2.03,3.398 3.27,4.812 1.23,1.41 2.64,2.535 4.23,3.371 1.59,0.832 3.33,1.25 5.21,1.25 l 0,-14.633 -2.29,0.196 c -2.95,0 -5.3,-0.739 -7.07,-2.215 -1.76,-1.473 -3.09,-3.496 -3.97,-6.063 -0.88,-2.566 -1.44,-5.55 -1.68,-8.953 -0.23,-3.398 -0.35,-7.09 -0.35,-11.066 l 0,-57.5549 -11.48,0 0,98.7499 11.48,0 0,-13.094"
         inkscape:connector-curvature="0" /><path
         id="path80"
         style="fill:#231f20;fill-opacity:1;fill-rule:nonzero;stroke:none"
         d="m 2330.65,44.8281 -12.36,0 -20.66,98.7499 11.66,0 11.65,-61.7928 c 0.59,-3.0782 1.15,-6.1563 1.68,-9.2383 0.53,-3.0781 1.09,-6.1602 1.68,-9.2383 l 0.7,0 c 0.36,3.0781 0.71,6.1914 1.06,9.332 0.35,3.1485 0.83,6.1953 1.41,9.1446 l 11.48,61.7928 11.84,0 -20.14,-98.7499"
         inkscape:connector-curvature="0" /><path
         id="path82"
         style="fill:#231f20;fill-opacity:1;fill-rule:nonzero;stroke:none"
         d="m 2378.1,172.832 c 0,-2.562 -0.82,-4.777 -2.47,-6.637 -1.65,-1.863 -3.65,-2.793 -6.01,-2.793 -2.35,0 -4.38,0.93 -6.09,2.793 -1.71,1.86 -2.56,4.075 -2.56,6.637 0,2.57 0.85,4.75 2.56,6.547 1.71,1.797 3.74,2.695 6.09,2.695 2.36,0 4.36,-0.898 6.01,-2.695 1.65,-1.797 2.47,-3.977 2.47,-6.547 z m -2.82,-128.0039 -11.48,0 0,98.7499 11.48,0 0,-98.7499"
         inkscape:connector-curvature="0" /><path
         id="path84"
         style="fill:#231f20;fill-opacity:1;fill-rule:nonzero;stroke:none"
         d="m 2431.46,126.828 c -1.41,1.668 -3.03,3.176 -4.85,4.524 -1.83,1.347 -3.86,2.023 -6.1,2.023 -3.76,0 -6.71,-1.508 -8.83,-4.523 -2.12,-3.016 -3.73,-6.645 -4.85,-10.879 -1.12,-4.235 -1.83,-8.598 -2.12,-13.086 -0.3,-4.492 -0.44,-8.1487 -0.44,-10.9729 0,-2.4375 0.17,-5.8399 0.53,-10.2032 0.35,-4.3632 1.06,-8.664 2.11,-12.8984 1.06,-4.2344 2.63,-7.9219 4.68,-11.0664 2.07,-3.1406 4.8,-4.7149 8.22,-4.7149 2.71,0 4.94,0.9297 6.71,2.793 1.76,1.8594 3.3,3.8789 4.59,6.0625 l 0.35,0 0,-15.5937 c -1.64,-1.5391 -3.68,-2.7578 -6.09,-3.6563 -2.41,-0.8984 -4.74,-1.3476 -6.98,-1.3476 -5.18,0 -9.45,1.7656 -12.8,5.2929 -3.35,3.5274 -6,7.7969 -7.95,12.8008 -1.94,5.0039 -3.29,10.3281 -4.06,15.9766 -0.76,5.6445 -1.15,10.5859 -1.15,14.8242 0,3.0742 0.12,6.543 0.36,10.3904 0.23,3.852 0.71,7.731 1.41,11.649 0.71,3.914 1.68,7.73 2.91,11.453 1.24,3.719 2.83,7.023 4.77,9.914 1.94,2.883 4.3,5.195 7.06,6.926 2.77,1.734 6.1,2.601 9.99,2.601 2.11,0 4.26,-0.32 6.44,-0.965 2.18,-0.64 4.21,-1.601 6.09,-2.886 l 0,-14.438"
         inkscape:connector-curvature="0" /><path
         id="path86"
         style="fill:#231f20;fill-opacity:1;fill-rule:nonzero;stroke:none"
         d="m 2486.35,102.191 -0.18,1.731 c -0.12,2.312 -0.27,5.164 -0.44,8.566 -0.18,3.403 -0.68,6.641 -1.5,9.719 -0.83,3.082 -2.09,5.715 -3.8,7.895 -1.71,2.179 -4.03,3.273 -6.98,3.273 -2.7,0 -4.94,-1.219 -6.71,-3.656 -1.76,-2.442 -3.15,-5.328 -4.15,-8.664 -1,-3.336 -1.68,-6.77 -2.02,-10.297 -0.36,-3.531 -0.54,-6.383 -0.54,-8.567 z m -26.49,-10.5894 0,-2.8828 c 0,-2.4415 0.14,-5.586 0.44,-9.4336 0.29,-3.8516 0.94,-7.5743 1.94,-11.1641 1,-3.5938 2.42,-6.6719 4.24,-9.2422 1.82,-2.5664 4.32,-3.8477 7.5,-3.8477 2.48,0 4.48,0.8321 6.01,2.504 1.53,1.664 2.71,3.7187 3.53,6.1562 0.82,2.4414 1.36,5.0039 1.59,7.6992 0.23,2.6953 0.35,5.0078 0.35,6.9336 l 11.83,0 c 0,-3.7226 -0.38,-7.6367 -1.14,-11.7461 -0.77,-4.1054 -2.01,-7.8906 -3.71,-11.3554 -1.71,-3.4649 -3.98,-6.3204 -6.8,-8.5665 -2.82,-2.246 -6.36,-3.3671 -10.6,-3.3671 -6,0 -10.77,1.6992 -14.3,5.1015 -3.53,3.3985 -6.24,7.668 -8.12,12.8008 -1.89,5.1328 -3.12,10.6172 -3.71,16.457 -0.59,5.8399 -0.89,11.2578 -0.89,16.2657 0,2.9492 0.12,6.2539 0.36,9.9099 0.23,3.66 0.67,7.379 1.32,11.168 0.65,3.785 1.59,7.504 2.83,11.164 1.24,3.656 2.79,6.864 4.68,9.625 1.88,2.758 4.15,5.004 6.8,6.735 2.64,1.734 5.79,2.601 9.44,2.601 5.3,0 9.57,-1.668 12.81,-5.008 3.24,-3.336 5.7,-7.441 7.42,-12.32 1.7,-4.875 2.85,-10.039 3.44,-15.492 0.58,-5.453 0.88,-10.363 0.88,-14.7267 l 0,-5.9687 -38.14,0"
         inkscape:connector-curvature="0" /><path
         id="path88"
         style="fill:#231f20;fill-opacity:1;fill-rule:nonzero;stroke:none"
         d="m 2556.53,44.8281 11.4766,0 0,153.992 -11.4766,0 z"
         inkscape:connector-curvature="0" /><path
         id="path90"
         style="fill:#231f20;fill-opacity:1;fill-rule:nonzero;stroke:none"
         d="m 2624.55,102.191 -0.18,1.731 c -0.12,2.312 -0.26,5.164 -0.44,8.566 -0.18,3.403 -0.68,6.641 -1.5,9.719 -0.83,3.082 -2.09,5.715 -3.8,7.895 -1.7,2.179 -4.03,3.273 -6.97,3.273 -2.71,0 -4.95,-1.219 -6.72,-3.656 -1.76,-2.442 -3.15,-5.328 -4.15,-8.664 -1,-3.336 -1.68,-6.77 -2.02,-10.297 -0.36,-3.531 -0.54,-6.383 -0.54,-8.567 z m -26.49,-10.5894 0,-2.8828 c 0,-2.4415 0.14,-5.586 0.44,-9.4336 0.29,-3.8516 0.94,-7.5743 1.94,-11.1641 1,-3.5938 2.42,-6.6719 4.24,-9.2422 1.82,-2.5664 4.32,-3.8477 7.5,-3.8477 2.48,0 4.48,0.8321 6.01,2.504 1.53,1.664 2.7,3.7187 3.53,6.1562 0.82,2.4414 1.35,5.0039 1.59,7.6992 0.24,2.6953 0.35,5.0078 0.35,6.9336 l 11.83,0 c 0,-3.7226 -0.38,-7.6367 -1.14,-11.7461 -0.77,-4.1054 -2.01,-7.8906 -3.71,-11.3554 -1.71,-3.4649 -3.97,-6.3204 -6.8,-8.5665 -2.82,-2.246 -6.36,-3.3671 -10.59,-3.3671 -6.01,0 -10.78,1.6992 -14.31,5.1015 -3.53,3.3985 -6.24,7.668 -8.12,12.8008 -1.89,5.1328 -3.12,10.6172 -3.71,16.457 -0.59,5.8399 -0.88,11.2578 -0.88,16.2657 0,2.9492 0.11,6.2539 0.35,9.9099 0.24,3.66 0.67,7.379 1.32,11.168 0.65,3.785 1.59,7.504 2.83,11.164 1.23,3.656 2.79,6.864 4.68,9.625 1.88,2.758 4.14,5.004 6.8,6.735 2.65,1.734 5.79,2.601 9.45,2.601 5.29,0 9.56,-1.668 12.8,-5.008 3.24,-3.336 5.7,-7.441 7.42,-12.32 1.7,-4.875 2.85,-10.039 3.44,-15.492 0.59,-5.453 0.88,-10.363 0.88,-14.7267 l 0,-5.9687 -38.14,0"
         inkscape:connector-curvature="0" /><path
         id="path92"
         style="fill:#231f20;fill-opacity:1;fill-rule:nonzero;stroke:none"
         d="m 2676.97,53.4922 c 2.36,0 4.36,0.6406 6.01,1.9219 1.65,1.2851 2.97,3.5312 3.97,6.7382 1,3.2071 1.74,7.5743 2.21,13.0899 0.47,5.5195 0.71,12.5117 0.71,20.9805 0,5.6483 -0.15,10.8433 -0.44,15.5893 -0.3,4.75 -0.95,8.825 -1.95,12.227 -1,3.399 -2.38,6.063 -4.15,7.988 -1.76,1.922 -4.06,2.887 -6.88,2.887 -3.54,0 -6.18,-1.574 -7.95,-4.719 -1.77,-3.14 -3,-6.8 -3.71,-10.968 -0.7,-4.172 -1.06,-8.375 -1.06,-12.61 0,-4.234 0,-7.4412 0,-9.6209 0,-3.082 0,-7.0586 0,-11.9375 0,-4.875 0.38,-9.6563 1.15,-14.3398 0.76,-4.6836 2.06,-8.7266 3.89,-12.129 1.82,-3.3984 4.55,-5.0976 8.2,-5.0976 z m -23.66,145.3278 11.48,0 0,-61.98 0.35,0 c 1.65,2.82 3.59,4.906 5.83,6.254 2.24,1.347 5,2.023 8.3,2.023 5.3,0 9.42,-1.539 12.36,-4.621 2.94,-3.078 5.18,-7.058 6.71,-11.934 1.53,-4.874 2.47,-10.269 2.83,-16.171 0.35,-5.899 0.53,-11.614 0.53,-17.1332 0,-6.2851 -0.21,-12.5117 -0.62,-18.6719 -0.41,-6.1562 -1.33,-11.707 -2.74,-16.6445 -1.41,-4.9414 -3.56,-8.9531 -6.45,-12.0352 -2.88,-3.0781 -6.79,-4.6171 -11.74,-4.6171 -3.29,0 -6.21,0.832 -8.74,2.5039 -2.53,1.6679 -4.62,3.9101 -6.27,6.7343 l -0.35,0 0,-7.6992 -11.48,0 0,153.9919"
         inkscape:connector-curvature="0" /><path
         id="path94"
         style="fill:#231f20;fill-opacity:1;fill-rule:nonzero;stroke:none"
         d="m 2757.73,102.191 -0.18,1.731 c -0.12,2.312 -0.26,5.164 -0.44,8.566 -0.18,3.403 -0.68,6.641 -1.5,9.719 -0.82,3.082 -2.09,5.715 -3.8,7.895 -1.7,2.179 -4.03,3.273 -6.97,3.273 -2.71,0 -4.95,-1.219 -6.72,-3.656 -1.76,-2.442 -3.14,-5.328 -4.14,-8.664 -1,-3.336 -1.68,-6.77 -2.03,-10.297 -0.36,-3.531 -0.54,-6.383 -0.54,-8.567 z m -26.49,-10.5894 0,-2.8828 c 0,-2.4415 0.14,-5.586 0.44,-9.4336 0.3,-3.8516 0.94,-7.5743 1.94,-11.1641 1,-3.5938 2.42,-6.6719 4.24,-9.2422 1.83,-2.5664 4.33,-3.8477 7.5,-3.8477 2.48,0 4.48,0.8321 6.01,2.504 1.53,1.664 2.71,3.7187 3.53,6.1562 0.83,2.4414 1.36,5.0039 1.59,7.6992 0.24,2.6953 0.35,5.0078 0.35,6.9336 l 11.84,0 c 0,-3.7226 -0.39,-7.6367 -1.15,-11.7461 -0.76,-4.1054 -2,-7.8906 -3.71,-11.3554 -1.71,-3.4649 -3.97,-6.3204 -6.8,-8.5665 -2.82,-2.246 -6.36,-3.3671 -10.59,-3.3671 -6.01,0 -10.77,1.6992 -14.31,5.1015 -3.53,3.3985 -6.24,7.668 -8.12,12.8008 -1.89,5.1328 -3.12,10.6172 -3.71,16.457 -0.59,5.8399 -0.88,11.2578 -0.88,16.2657 0,2.9492 0.11,6.2539 0.35,9.9099 0.24,3.66 0.68,7.379 1.33,11.168 0.64,3.785 1.58,7.504 2.82,11.164 1.24,3.656 2.8,6.864 4.68,9.625 1.88,2.758 4.15,5.004 6.8,6.735 2.65,1.734 5.8,2.601 9.45,2.601 5.3,0 9.57,-1.668 12.8,-5.008 3.24,-3.336 5.71,-7.441 7.42,-12.32 1.71,-4.875 2.85,-10.039 3.44,-15.492 0.59,-5.453 0.89,-10.363 0.89,-14.7267 l 0,-5.9687 -38.15,0"
         inkscape:connector-curvature="0" /><path
         id="path96"
         style="fill:#231f20;fill-opacity:1;fill-rule:nonzero;stroke:none"
         d="m 2798.38,135.684 c 2.35,2.953 5.03,5.261 8.03,6.929 3.01,1.668 6.27,2.504 9.81,2.504 4,0 7.18,-0.898 9.53,-2.699 2.36,-1.793 4.13,-4.137 5.3,-7.023 1.18,-2.887 1.91,-6.098 2.21,-9.625 0.29,-3.528 0.44,-6.961 0.44,-10.297 l 0,-70.6449 -11.48,0 0,69.2969 c 0,2.949 -0.09,5.676 -0.26,8.18 -0.18,2.504 -0.62,4.687 -1.33,6.547 -0.7,1.859 -1.74,3.336 -3.09,4.425 -1.35,1.094 -3.2,1.637 -5.56,1.637 -3.3,0 -5.86,-0.867 -7.68,-2.602 -1.83,-1.73 -3.18,-3.91 -4.07,-6.542 -0.88,-2.629 -1.41,-5.454 -1.58,-8.469 -0.18,-3.016 -0.27,-5.809 -0.27,-8.371 l 0,-64.1019 -11.48,0 0,98.7499 11.48,0 0,-7.894"
         inkscape:connector-curvature="0" /><path
         id="path98"
         style="fill:#231f20;fill-opacity:1;fill-rule:nonzero;stroke:none"
         d="m 348.258,619.008 c -4.379,7.023 -9.043,12.894 -13.992,17.621 -4.95,4.726 -10.848,7.09 -17.704,7.09 -4.949,0 -9.371,-1.352 -13.277,-4.051 -3.902,-2.703 -7.183,-6.348 -9.847,-10.938 -2.668,-4.589 -4.665,-9.855 -6,-15.796 -1.333,-5.942 -1.997,-12.153 -1.997,-18.633 0,-8.91 1.047,-16.739 3.141,-23.492 2.094,-6.75 4.856,-12.829 8.281,-18.227 3.426,-5.398 7.375,-10.394 11.848,-14.988 4.473,-4.59 8.996,-9.043 13.562,-13.364 4.571,-4.593 9.043,-9.32 13.422,-14.179 4.375,-4.86 8.282,-10.395 11.707,-16.606 3.426,-6.211 6.184,-13.3 8.282,-21.265 2.089,-7.965 3.14,-17.215 3.14,-27.746 0,-11.071 -1.238,-21.805 -3.711,-32.2 -2.48,-10.398 -6.047,-19.644 -10.711,-27.746 -4.664,-8.101 -10.324,-14.582 -16.988,-19.445 -6.664,-4.859 -14.18,-7.289 -22.559,-7.289 -6.089,0 -12.039,1.215 -17.843,3.644 -5.809,2.43 -11.184,6.348 -16.133,11.747 l 0,36.859 c 4.57,-7.02 9.801,-12.895 15.707,-17.621 5.898,-4.723 12.277,-7.086 19.125,-7.086 5.332,0 10.043,1.484 14.137,4.457 4.093,2.969 7.519,7.019 10.281,12.148 2.758,5.133 4.805,10.871 6.137,17.215 1.336,6.348 1.996,13.031 1.996,20.051 0,8.91 -1.043,16.676 -3.141,23.293 -2.094,6.613 -4.851,12.621 -8.277,18.023 -3.426,5.403 -7.328,10.328 -11.707,14.786 -4.379,4.453 -8.852,8.976 -13.422,13.566 -4.567,4.32 -9.043,8.98 -13.418,13.976 -4.379,4.997 -8.328,10.665 -11.848,17.012 -3.523,6.344 -6.332,13.571 -8.426,21.668 -2.093,8.102 -3.14,17.688 -3.14,28.758 0,10.262 1.094,20.254 3.281,29.977 2.191,9.722 5.379,18.363 9.566,25.921 4.188,7.563 9.329,13.637 15.418,18.227 6.094,4.59 13.137,6.887 21.129,6.887 6.473,0 12.473,-1.418 17.993,-4.254 5.519,-2.836 10.847,-6.817 15.988,-11.949 l 0,-36.051"
         inkscape:connector-curvature="0" /><path
         id="path100"
         style="fill:#231f20;fill-opacity:1;fill-rule:nonzero;stroke:none"
         d="m 515.602,641.285 -49.602,0 0,-107.742 48.113,0 0,-25.922 -48.113,0 0,-119.894 49.602,0 0,-25.922 -70.391,0 0,305.406 70.391,0 0,-25.926"
         inkscape:connector-curvature="0" /><path
         id="path102"
         style="fill:#231f20;fill-opacity:1;fill-rule:nonzero;stroke:none"
         d="m 1287.62,641.285 -49.6,0 0,-107.742 48.12,0 0,-25.922 -48.12,0 0,-119.894 49.6,0 0,-25.922 -70.39,0 0,305.406 70.39,0 0,-25.926"
         inkscape:connector-curvature="0" /><path
         id="path104"
         style="fill:#231f20;fill-opacity:1;fill-rule:nonzero;stroke:none"
         d="m 2263.37,641.285 -49.6,0 0,-107.742 48.11,0 0,-25.922 -48.11,0 0,-119.894 49.6,0 0,-25.922 -70.39,0 0,305.406 70.39,0 0,-25.926"
         inkscape:connector-curvature="0" /><path
         id="path106"
         style="fill:#231f20;fill-opacity:1;fill-rule:nonzero;stroke:none"
         d="m 617.645,534.355 7.632,0 c 7.532,0 13.586,0.942 18.164,2.836 4.582,1.891 8.09,4.926 10.532,9.114 2.441,4.183 4.074,9.722 4.886,16.605 0.813,6.887 1.223,15.324 1.223,25.317 0,12.148 -0.715,21.738 -2.141,28.757 -1.425,7.024 -3.66,12.356 -6.714,16 -3.051,3.645 -7.02,5.942 -11.907,6.883 -4.886,0.949 -10.683,1.418 -17.402,1.418 l -4.273,0 z m -21.368,-172.55 0,305.406 22.895,0 c 7.937,0 15.719,-0.539 23.355,-1.621 7.633,-1.078 14.348,-4.188 20.149,-9.317 5.797,-5.128 10.48,-12.89 14.043,-23.289 3.562,-10.394 5.34,-24.91 5.34,-43.543 0,-9.718 -0.504,-19.238 -1.524,-28.558 -1.019,-9.313 -3.105,-17.617 -6.258,-24.906 -3.156,-7.289 -7.582,-13.231 -13.281,-17.825 -5.699,-4.59 -13.129,-7.019 -22.285,-7.289 l 50.98,-149.058 -22.589,0 -48.848,149.461 -0.609,0 0,-149.461 -21.368,0"
         inkscape:connector-curvature="0" /><path
         id="path108"
         style="fill:#231f20;fill-opacity:1;fill-rule:nonzero;stroke:none"
         d="m 813.297,361.805 -18.391,0 -45.082,305.406 21.356,0 29.363,-222.371 c 0.199,-1.891 0.449,-4.457 0.742,-7.695 0.297,-3.243 0.594,-6.817 0.891,-10.735 0.297,-3.914 0.594,-7.832 0.89,-11.746 0.297,-3.918 0.645,-7.629 1.036,-11.141 l 1.187,0 c 0.395,7.024 0.891,14.719 1.484,23.09 0.594,8.371 1.09,14.446 1.485,18.227 l 29.066,222.371 21.059,0 -45.086,-305.406"
         inkscape:connector-curvature="0" /><path
         id="path110"
         style="fill:#231f20;fill-opacity:1;fill-rule:nonzero;stroke:none"
         d="m 937.609,361.805 22.2109,0 0,305.406 -22.2109,0 z"
         inkscape:connector-curvature="0" /><path
         id="path112"
         style="fill:#231f20;fill-opacity:1;fill-rule:nonzero;stroke:none"
         d="m 1130.28,370.312 c -3.85,-3.781 -8.23,-6.82 -13.14,-9.113 -4.9,-2.297 -9.76,-3.445 -14.57,-3.445 -8.47,0 -15.83,2.363 -22.08,7.09 -6.26,4.726 -11.55,11.07 -15.88,19.035 -4.33,7.969 -7.84,17.012 -10.53,27.137 -2.7,10.129 -4.81,20.589 -6.35,31.394 -1.54,10.801 -2.55,21.535 -3.03,32.199 -0.49,10.668 -0.73,20.321 -0.73,28.961 0,8.371 0.1,18.297 0.29,29.774 0.2,11.472 0.92,23.426 2.17,35.847 1.25,12.418 3.12,24.707 5.63,36.86 2.5,12.148 5.96,23.086 10.39,32.804 4.43,9.723 10.05,17.555 16.88,23.497 6.83,5.941 15.25,8.91 25.26,8.91 4.04,0 8.52,-0.742 13.42,-2.227 4.91,-1.484 9,-3.984 12.27,-7.496 l 0,-31.187 c -4.04,3.781 -8.04,6.953 -11.98,9.515 -3.94,2.567 -8.42,3.852 -13.42,3.852 -8.85,0 -15.93,-4.051 -21.22,-12.153 -5.29,-8.101 -9.33,-18.363 -12.12,-30.785 -2.79,-12.422 -4.62,-26.258 -5.49,-41.515 -0.86,-15.258 -1.29,-29.907 -1.29,-43.95 0,-5.941 0.04,-13.3 0.14,-22.074 0.1,-8.777 0.53,-17.957 1.3,-27.543 0.77,-9.586 1.92,-19.172 3.46,-28.761 1.54,-9.583 3.76,-18.227 6.64,-25.922 2.89,-7.696 6.5,-13.907 10.82,-18.633 4.34,-4.723 9.77,-7.086 16.32,-7.086 5,0 9.76,1.351 14.28,4.051 4.52,2.699 8.71,5.941 12.56,9.722 l 0,-28.758"
         inkscape:connector-curvature="0" /><path
         id="path114"
         style="fill:#231f20;fill-opacity:1;fill-rule:nonzero;stroke:none"
         d="m 1574.67,370.312 c -3.85,-3.781 -8.23,-6.82 -13.13,-9.113 -4.91,-2.297 -9.77,-3.445 -14.58,-3.445 -8.47,0 -15.83,2.363 -22.08,7.09 -6.26,4.726 -11.55,11.07 -15.88,19.035 -4.33,7.969 -7.84,17.012 -10.54,27.137 -2.69,10.129 -4.8,20.589 -6.34,31.394 -1.54,10.801 -2.55,21.535 -3.03,32.199 -0.48,10.668 -0.73,20.321 -0.73,28.961 0,8.371 0.1,18.297 0.29,29.774 0.2,11.472 0.92,23.426 2.17,35.847 1.25,12.418 3.13,24.707 5.63,36.86 2.5,12.148 5.96,23.086 10.39,32.804 4.43,9.723 10.05,17.555 16.88,23.497 6.83,5.941 15.25,8.91 25.26,8.91 4.04,0 8.52,-0.742 13.42,-2.227 4.91,-1.484 8.99,-3.984 12.27,-7.496 l 0,-31.187 c -4.04,3.781 -8.04,6.953 -11.98,9.515 -3.94,2.567 -8.42,3.852 -13.42,3.852 -8.85,0 -15.93,-4.051 -21.22,-12.153 -5.29,-8.101 -9.33,-18.363 -12.12,-30.785 -2.79,-12.422 -4.62,-26.258 -5.48,-41.515 -0.87,-15.258 -1.3,-29.907 -1.3,-43.95 0,-5.941 0.05,-13.3 0.14,-22.074 0.1,-8.777 0.53,-17.957 1.3,-27.543 0.77,-9.586 1.93,-19.172 3.46,-28.761 1.54,-9.583 3.76,-18.227 6.64,-25.922 2.89,-7.696 6.5,-13.907 10.83,-18.633 4.33,-4.723 9.77,-7.086 16.31,-7.086 5,0 9.76,1.351 14.28,4.051 4.52,2.699 8.71,5.941 12.56,9.722 l 0,-28.758"
         inkscape:connector-curvature="0" /><path
         id="path116"
         style="fill:#231f20;fill-opacity:1;fill-rule:nonzero;stroke:none"
         d="m 2105.59,370.312 c -3.86,-3.781 -8.23,-6.82 -13.14,-9.113 -4.91,-2.297 -9.76,-3.445 -14.57,-3.445 -8.47,0 -15.83,2.363 -22.09,7.09 -6.25,4.726 -11.54,11.07 -15.87,19.035 -4.33,7.969 -7.84,17.012 -10.54,27.137 -2.69,10.129 -4.81,20.589 -6.35,31.394 -1.54,10.801 -2.55,21.535 -3.03,32.199 -0.48,10.668 -0.72,20.321 -0.72,28.961 0,8.371 0.1,18.297 0.29,29.774 0.19,11.472 0.91,23.426 2.16,35.847 1.25,12.418 3.13,24.707 5.63,36.86 2.5,12.148 5.97,23.086 10.39,32.804 4.43,9.723 10.06,17.555 16.89,23.497 6.83,5.941 15.25,8.91 25.25,8.91 4.05,0 8.52,-0.742 13.43,-2.227 4.9,-1.484 8.99,-3.984 12.27,-7.496 l 0,-31.187 c -4.05,3.781 -8.04,6.953 -11.98,9.515 -3.95,2.567 -8.42,3.852 -13.43,3.852 -8.85,0 -15.92,-4.051 -21.21,-12.153 -5.29,-8.101 -9.33,-18.363 -12.12,-30.785 -2.8,-12.422 -4.62,-26.258 -5.49,-41.515 -0.87,-15.258 -1.3,-29.907 -1.3,-43.95 0,-5.941 0.05,-13.3 0.15,-22.074 0.09,-8.777 0.53,-17.957 1.29,-27.543 0.78,-9.586 1.93,-19.172 3.47,-28.761 1.54,-9.583 3.75,-18.227 6.64,-25.922 2.88,-7.696 6.49,-13.907 10.82,-18.633 4.33,-4.723 9.77,-7.086 16.31,-7.086 5,0 9.77,1.351 14.29,4.051 4.52,2.699 8.7,5.941 12.56,9.722 l 0,-28.758"
         inkscape:connector-curvature="0" /><path
         id="path118"
         style="fill:#231f20;fill-opacity:1;fill-rule:nonzero;stroke:none"
         d="m 1702.84,643.719 c -8.05,0.539 -14.28,-3.375 -18.7,-11.746 -4.42,-8.371 -7.71,-19.039 -9.87,-32 -2.16,-12.961 -3.48,-27.071 -3.97,-42.328 -0.49,-15.258 -0.74,-29.637 -0.74,-43.137 0,-13.504 0.25,-27.813 0.74,-42.934 0.49,-15.125 1.81,-29.097 3.97,-41.926 2.16,-12.828 5.45,-23.425 9.87,-31.796 4.42,-8.372 10.65,-12.555 18.7,-12.555 7.86,0 14.04,4.183 18.56,12.555 4.51,8.371 7.85,18.968 10.01,31.796 2.16,12.829 3.48,26.801 3.98,41.926 0.49,15.121 0.73,29.43 0.73,42.934 0,13.5 -0.24,27.812 -0.73,42.933 -0.5,15.121 -1.82,29.098 -3.98,41.922 -2.16,12.828 -5.5,23.426 -10.01,31.797 -4.52,8.371 -10.7,12.559 -18.56,12.559 z m 0,27.543 c 12.57,0 22.44,-4.996 29.61,-14.989 7.16,-9.988 12.61,-22.679 16.34,-38.074 3.73,-15.39 6.09,-32.336 7.07,-50.832 0.98,-18.5 1.47,-36.117 1.47,-52.859 0,-9.453 -0.15,-19.914 -0.44,-31.391 -0.3,-11.476 -1.03,-23.023 -2.21,-34.633 -1.18,-11.609 -2.94,-22.886 -5.3,-33.82 -2.36,-10.937 -5.55,-20.59 -9.57,-28.961 -4.03,-8.371 -9.04,-15.121 -15.02,-20.254 -5.99,-5.129 -13.31,-7.695 -21.95,-7.695 -12.17,0 -21.84,4.793 -29.01,14.379 -7.17,9.59 -12.66,22.008 -16.49,37.265 -3.83,15.254 -6.29,32.133 -7.36,50.629 -1.09,18.5 -1.62,36.657 -1.62,54.481 0,19.441 0.63,38.48 1.91,57.109 1.28,18.633 3.83,35.375 7.66,50.231 3.83,14.847 9.32,26.797 16.49,35.843 7.17,9.047 16.64,13.571 28.42,13.571"
         inkscape:connector-curvature="0" /><path
         id="path120"
         style="fill:#231f20;fill-opacity:1;fill-rule:nonzero;stroke:none"
         d="m 1939.14,361.805 -19.35,0 -53.95,205.359 c -1.69,6.211 -3.12,12.691 -4.29,19.441 -1.16,6.754 -2.48,13.368 -3.96,19.848 l -1.27,0 c 0.42,-9.992 0.95,-19.848 1.59,-29.566 0.63,-9.723 0.95,-19.578 0.95,-29.571 l 0,-185.511 -19.36,0 0,305.406 19.36,0 54.9,-212.246 c 1.47,-5.399 2.8,-10.668 3.96,-15.797 1.16,-5.133 2.28,-10.395 3.33,-15.793 l 0.95,0 c -0.42,6.746 -0.89,13.5 -1.42,20.25 -0.53,6.75 -0.79,13.5 -0.79,20.254 l 0,203.332 19.35,0 0,-305.406"
         inkscape:connector-curvature="0" /><path
         id="path122"
         style="fill:#231f20;fill-opacity:1;fill-rule:nonzero;stroke:none"
         d="m 2367.31,533.949 7.96,0 c 7.27,0 13.02,0.949 17.25,2.836 4.22,1.891 7.52,4.996 9.87,9.317 2.36,4.32 3.93,9.925 4.72,16.808 0.78,6.887 1.28,15.188 1.47,24.91 0,10.532 -0.59,19.242 -1.77,26.125 -1.17,6.887 -3.19,12.356 -6.04,16.407 -2.85,4.05 -6.63,6.886 -11.35,8.503 -4.72,1.622 -10.71,2.43 -17.98,2.43 l -4.13,0 z m -20.63,-172.144 0,305.406 22.99,0 c 7.86,0 15.43,-0.609 22.7,-1.82 7.27,-1.219 13.7,-4.457 19.31,-9.723 5.6,-5.266 10.02,-13.164 13.26,-23.695 3.24,-10.532 4.86,-25.25 4.86,-44.153 0,-14.851 -0.98,-27.34 -2.94,-37.465 -1.97,-10.125 -5.21,-18.363 -9.73,-24.707 -4.52,-6.347 -10.42,-10.871 -17.68,-13.57 -7.28,-2.703 -16.22,-4.051 -26.83,-4.051 l -5.31,0 0,-146.222 -20.63,0"
         inkscape:connector-curvature="0" /><path
         id="path124"
         style="fill:#231f20;fill-opacity:1;fill-rule:nonzero;stroke:none"
         d="m 2585.83,641.285 -35.86,0 0,-279.48 -22.21,0 0,279.48 -35.86,0 0,25.926 93.93,0 0,-25.926"
         inkscape:connector-curvature="0" /><path
         id="path126"
         style="fill:#2744a0;fill-opacity:1;fill-rule:evenodd;stroke:none"
         d="m 1823.89,1394.5 -416.91,-399.57 -416.906,399.57 833.816,0"
         inkscape:connector-curvature="0" /><path
         id="path128"
         style="fill:#e9e9e9;fill-opacity:1;fill-rule:evenodd;stroke:none"
         d="M 1760.46,1194.71 1406.99,855.941 1053.52,1194.71 636.605,795.148 l 1540.755,0 -416.9,399.562"
         inkscape:connector-curvature="0" /></g></g></svg>