<svg id="logo-wegewerk" width="128" height="26" viewBox="0 0 128 26" xmlns="http://www.w3.org/2000/svg">
    <title>Logo wegewerk GmbH</title>
    <path d="M128 18.217c0-1.439-1.218-2.65-2.664-2.65-1.442 0-2.657 1.211-2.657 2.65 0 1.44 1.215 2.653 2.657 2.653 1.446 0 2.664-1.214 2.664-2.653zm-6.938 2.34l-4.27-10.094 3.82-4.71h-4.616l-2.404 3.102c-.51.649-1.187 1.58-1.586 2.172.028-.733.057-2.257.057-3.16V0l-3.906 1.947v18.61h3.906v-4.482l1.897-2.341 2.831 6.823h4.271zM106.63 6.487c-.512-.536-1.472-1.044-2.746-1.044a4.12 4.12 0 0 0-3.056 1.298v-.988H96.92v14.804h3.908V12.55c0-2.568.991-3.217 2.52-3.217.876 0 1.642.395 2.263.96l1.02-3.807zM91.038 11.48H85.94c.141-1.496 1.019-2.65 2.435-2.65 1.753 0 2.546 1.324 2.662 2.65zm3.79 1.69c0-4.23-2.292-7.726-6.254-7.726-3.764 0-6.624 3.188-6.624 7.726 0 4.684 2.716 7.7 6.99 7.7 1.982 0 4.132-.874 5.32-2.398l-2.772-2.31c-.566.646-1.47 1.04-2.548 1.04-1.414 0-2.912-.759-3.056-2.79h8.889c.028-.28.054-.677.054-1.242zM81.694 5.753h-3.848l-1.3 5.472c-.258 1.128-.597 2.68-.708 3.383-.116-.733-.482-2.229-.793-3.383l-1.473-5.472h-3.225l-1.475 5.472c-.31 1.154-.677 2.65-.79 3.383-.114-.703-.454-2.255-.706-3.383l-1.305-5.472H62.11l4.276 14.804h3.251l1.473-5.808c.283-1.156.682-2.793.795-3.496.113.703.507 2.34.79 3.496l1.47 5.808h3.255l4.275-14.804zM57.836 11.48h-5.094c.144-1.496 1.02-2.65 2.435-2.65 1.753 0 2.546 1.324 2.66 2.65zm3.792 1.69c0-4.23-2.29-7.726-6.253-7.726-3.766 0-6.623 3.188-6.623 7.726 0 4.684 2.716 7.7 6.991 7.7 1.98 0 4.132-.874 5.322-2.398l-2.775-2.31c-.567.646-1.47 1.04-2.547 1.04-1.415 0-2.916-.759-3.058-2.79h8.89c.025-.28.053-.677.053-1.242zm-18.422 2.794c-.566.73-1.189 1.239-2.407 1.239-1.529 0-2.548-1.268-2.548-4.313 0-2.482.821-3.78 2.322-3.78 1.13 0 2.039.451 2.633 1.27v5.584zm3.906 2.085V5.753h-3.906v.845c-.71-.647-1.84-1.155-3.143-1.155-3.681 0-5.774 3.101-5.774 7.531 0 5.526 2.605 7.896 5.774 7.896 1.414 0 2.407-.593 3.143-1.242 0 2.283-.823 3.017-3.88 3.44L40.715 26c5.206-.562 6.398-3.07 6.398-7.952zm-18.19-6.57h-5.094c.144-1.495 1.02-2.65 2.436-2.65 1.753 0 2.546 1.325 2.659 2.65zm3.79 1.691c0-4.23-2.288-7.726-6.25-7.726-3.766 0-6.624 3.188-6.624 7.726 0 4.684 2.716 7.7 6.992 7.7 1.98 0 4.132-.874 5.321-2.398l-2.775-2.31c-.566.646-1.472 1.04-2.546 1.04-1.418 0-2.917-.759-3.058-2.79h8.886c.029-.28.055-.677.055-1.242zM19.584 5.753h-3.85l-1.301 5.472c-.255 1.128-.595 2.68-.708 3.383-.113-.733-.481-2.229-.79-3.383L11.46 5.753H8.233l-1.47 5.472c-.314 1.154-.682 2.65-.795 3.383-.111-.703-.451-2.255-.706-3.383L3.96 5.753H0l4.271 14.804h3.256l1.47-5.808c.284-1.156.68-2.793.793-3.496.114.703.51 2.34.793 3.496l1.473 5.808h3.254l4.273-14.804z" fill-rule="nonzero" fill="#131413"></path>
</svg>